<?xml version="1.0" encoding="utf-8"?>
<!-- Generator: Adobe Illustrator 28.1.0, SVG Export Plug-In . SVG Version: 6.00 Build 0)  -->
<svg version="1.1" id="圖層_1" xmlns="http://www.w3.org/2000/svg" xmlns:xlink="http://www.w3.org/1999/xlink" x="0px" y="0px"
	 viewBox="0 0 16 16" style="enable-background:new 0 0 16 16;" xml:space="preserve">
<style type="text/css">
	.st0{fill:#B72E67;}
</style>
<g>
	<path class="st0" d="M8,14c3.3,0,6-2.7,6-6s-2.7-6-6-6S2,4.7,2,8S4.7,14,8,14z M7.4,5.1l2.5,2.5c0.2,0.2,0.2,0.5,0,0.7c0,0,0,0,0,0
		l-2.5,2.5c-0.2,0.2-0.5,0.2-0.7,0s-0.2-0.5,0-0.7L8.8,8L6.6,5.9c-0.2-0.2-0.2-0.5,0-0.7S7.2,5,7.4,5.1z"/>
</g>
</svg>
