<?xml version="1.0" encoding="utf-8"?>
<!-- Generator: Adobe Illustrator 28.1.0, SVG Export Plug-In . SVG Version: 6.00 Build 0)  -->
<svg version="1.1" id="圖層_1" xmlns="http://www.w3.org/2000/svg" xmlns:xlink="http://www.w3.org/1999/xlink" x="0px" y="0px"
	 viewBox="0 0 24 24" style="enable-background:new 0 0 24 24;" xml:space="preserve">
<style type="text/css">
	.st0{fill:#B62D66;}
</style>
<path class="st0" d="M12,3c-0.5,0-0.9,0-1.4,0.1c-2.8,0.5-5,2.8-5.5,5.5c-0.5,2.6,0.5,5,2.2,6.6C7.8,15.6,8,16.1,8,16.7V19
	c0,1.1,0.9,2,2,2h0.3c0.5,0.9,1.8,1.3,2.7,0.7c0.3-0.2,0.6-0.4,0.7-0.7H14c1.1,0,2-0.9,2-2v-2.3c0-0.5,0.2-1.1,0.6-1.5
	C18.1,13.9,19,12,19,10C19,6.1,15.9,3,12,3z M14,17h-4v-1h4V17z M10,19v-1h4v1H10z M15.3,13.7c-0.1,0.1-0.2,0.2-0.2,0.3H8.9
	c-0.1-0.1-0.1-0.2-0.2-0.3C7.4,12.5,6.8,10.8,7.1,9c0.4-1.9,2-3.6,3.9-3.9C11.3,5,11.7,5,12,5c2.8,0,5,2.2,5,5
	C17,11.4,16.4,12.8,15.3,13.7z"/>
<path class="st0" d="M11.5,11h1v3h-1V11z"/>
<path class="st0" d="M9.7,9.6l0.7-0.7l2.1,2.1l-0.7,0.7L9.7,9.6z"/>
<path class="st0" d="M12.2,11.7L11.5,11l2.1-2.1l0.7,0.7L12.2,11.7z"/>
</svg>
