<?xml version="1.0" encoding="utf-8"?>
<!-- Generator: Adobe Illustrator 28.1.0, SVG Export Plug-In . SVG Version: 6.00 Build 0)  -->
<svg version="1.1" id="圖層_1" xmlns="http://www.w3.org/2000/svg" xmlns:xlink="http://www.w3.org/1999/xlink" x="0px" y="0px"
	 viewBox="0 0 24 24" style="enable-background:new 0 0 24 24;" xml:space="preserve">
<style type="text/css">
	.st0{fill:#C21062;}
</style>
<g>
	<path class="st0" d="M19.3,16.6c1,0,1.7-0.8,1.7-1.7l0-8.7c0-1-0.8-1.7-1.7-1.7h-14c-1,0-1.7,0.8-1.7,1.7v8.7c0,1,0.8,1.7,1.7,1.7
		H1.8v1.7h21v-1.7H19.3z M5.3,6.1h14v8.7h-14V6.1z"/>
	<circle class="st0" cx="11.3" cy="9" r="1.7"/>
	<path class="st0" d="M13.6,12c-0.7-0.3-1.5-0.5-2.3-0.5c-0.8,0-1.6,0.2-2.3,0.5c-0.6,0.3-1,0.9-1,1.5V14h6.6v-0.5
		C14.6,12.8,14.2,12.2,13.6,12z"/>
	<g>
		<g>
			<g>
				<path class="st0" d="M15.2,6.9v0.9h0.9v0.5h-0.9v0.9h-0.5V8.3h-0.9V7.8h0.9V6.9H15.2z"/>
			</g>
		</g>
	</g>
</g>
</svg>
