<?xml version="1.0" encoding="utf-8"?>
<!-- Generator: Adobe Illustrator 28.1.0, SVG Export Plug-In . SVG Version: 6.00 Build 0)  -->
<svg version="1.1" id="圖層_1" xmlns="http://www.w3.org/2000/svg" xmlns:xlink="http://www.w3.org/1999/xlink" x="0px" y="0px"
	 viewBox="0 0 24 24" style="enable-background:new 0 0 24 24;" xml:space="preserve">
<style type="text/css">
	.st0{fill:#EA86B3;}
</style>
<g>
	<path class="st0" d="M19.4,16.6c1,0,1.7-0.8,1.7-1.8l0-8.8c0-1-0.8-1.8-1.8-1.8H5.3c-1,0-1.8,0.8-1.8,1.8v8.8c0,1,0.8,1.8,1.8,1.8
		H1.8v1.8h21.1v-1.8H19.4z M5.3,6.1h14.1v8.8H5.3V6.1z"/>
	<path class="st0" d="M15.6,9.6c-0.3-1.6-1.7-2.7-3.3-2.7c-1.3,0-2.4,0.7-3,1.8C8,8.8,7,10,7,11.4c0,1.5,1.2,2.7,2.7,2.7h5.8
		c1.2,0,2.2-1,2.2-2.2C17.7,10.6,16.8,9.7,15.6,9.6z M15.5,13.2H9.6c-1,0-1.8-0.8-1.8-1.8c0-0.9,0.7-1.7,1.6-1.8l0.5,0l0.2-0.4
		c0.4-0.8,1.3-1.3,2.2-1.3c1.2,0,2.2,0.8,2.4,2l0.1,0.7l0.7,0c0.7,0,1.2,0.6,1.2,1.3C16.8,12.6,16.2,13.2,15.5,13.2z M10.5,10.9h1.1
		v1.3H13v-1.3h1.1l-1.8-1.8L10.5,10.9z"/>
</g>
</svg>
