<?xml version="1.0" encoding="utf-8"?>
<!-- Generator: Adobe Illustrator 28.1.0, SVG Export Plug-In . SVG Version: 6.00 Build 0)  -->
<svg version="1.1" id="圖層_1" xmlns="http://www.w3.org/2000/svg" xmlns:xlink="http://www.w3.org/1999/xlink" x="0px" y="0px"
	 viewBox="0 0 32 32" style="enable-background:new 0 0 32 32;" xml:space="preserve">
<style type="text/css">
	.st0{fill:#B72E67;}
</style>
<g>
	<path class="st0" d="M20,8c0,2.2-1.8,4-4,4s-4-1.8-4-4s1.8-4,4-4S20,5.8,20,8z M7,12c1.7,0,3-1.3,3-3S8.7,6,7,6S4,7.3,4,9
		S5.3,12,7,12z M25,12c1.7,0,3-1.3,3-3s-1.3-3-3-3s-3,1.3-3,3S23.3,12,25,12z M10.2,15c0.3-0.6,1-1,1.7-1h8.2c1.1,0,1.9,0.9,1.9,1.9
		l0,0V22c0,3.3-2.7,6-6,6c-2.8,0-5.2-1.9-5.8-4.6C10.1,22.9,10,22.5,10,22v-6.1C10,15.6,10.1,15.3,10.2,15z M8.5,15.9
		c0-0.3,0-0.6,0.1-0.9H4c-0.6,0-1,0.4-1,1v5c0,2.2,1.8,4,4,4c0.7,0,1.3-0.2,1.9-0.5c-0.3-0.8-0.4-1.7-0.4-2.5
		C8.5,22,8.5,15.9,8.5,15.9z M23.5,22c0,0.9-0.1,1.7-0.4,2.5c1.9,1.1,4.4,0.4,5.4-1.6c0.3-0.6,0.5-1.3,0.5-1.9v-5c0-0.6-0.4-1-1-1
		h-4.6c0.1,0.3,0.1,0.6,0.1,0.9V22z"/>
</g>
</svg>
