<?xml version="1.0" encoding="utf-8"?>
<!-- Generator: Adobe Illustrator 28.1.0, SVG Export Plug-In . SVG Version: 6.00 Build 0)  -->
<svg version="1.1" id="圖層_1" xmlns="http://www.w3.org/2000/svg" xmlns:xlink="http://www.w3.org/1999/xlink" x="0px" y="0px"
	 viewBox="0 0 24 24" style="enable-background:new 0 0 24 24;" xml:space="preserve">
<style type="text/css">
	.st0{fill:#991D4F;}
</style>
<path class="st0" d="M8.2,7.2c-0.1,0-0.1,0.1-0.1,0.1v0.8c0,0.1,0.1,0.1,0.1,0.1h6.7c0.1,0,0.1-0.1,0.1-0.1V7.3
	c0-0.1-0.1-0.1-0.1-0.1H8.2z M11.4,9.7H8.2c-0.1,0-0.1,0.1-0.1,0.1v0.8c0,0.1,0.1,0.1,0.1,0.1h3.2c0.1,0,0.1-0.1,0.1-0.1V9.8
	C11.6,9.8,11.5,9.7,11.4,9.7z M10.6,17.7H6.7V5.4h9.8V11c0,0.1,0.1,0.1,0.1,0.1h1c0.1,0,0.1-0.1,0.1-0.1V4.7c0-0.3-0.3-0.6-0.6-0.6
	H6c-0.3,0-0.6,0.3-0.6,0.6v13.8C5.4,18.7,5.7,19,6,19h4.6c0.1,0,0.1-0.1,0.1-0.1v-1C10.7,17.8,10.7,17.7,10.6,17.7z M18.3,16.2h-2.5
	v-0.6c0.8-0.2,1.4-1,1.4-1.9c0-1.1-0.9-2-2-2s-2,0.9-2,2c0,0.9,0.6,1.6,1.4,1.9v0.6h-2.5c-0.2,0-0.3,0.1-0.3,0.3v2.7
	c0,0.2,0.1,0.3,0.3,0.3h6.2c0.2,0,0.3-0.1,0.3-0.3v-2.7C18.6,16.3,18.5,16.2,18.3,16.2z M14.4,13.7c0-0.5,0.4-0.9,0.9-0.9
	s0.9,0.4,0.9,0.9s-0.4,0.9-0.9,0.9S14.4,14.1,14.4,13.7z M17.5,18.3h-4.6v-1.1h4.6V18.3z"/>
</svg>
