<?xml version="1.0" encoding="utf-8"?>
<!-- Generator: Adobe Illustrator 28.1.0, SVG Export Plug-In . SVG Version: 6.00 Build 0)  -->
<svg version="1.1" id="圖層_1" xmlns="http://www.w3.org/2000/svg" xmlns:xlink="http://www.w3.org/1999/xlink" x="0px" y="0px"
	 viewBox="0 0 512 512" style="enable-background:new 0 0 512 512;" xml:space="preserve">
<style type="text/css">
	.st0{fill:#FFFFFF;}
	.st1{fill:#F5C0CB;}
</style>
<g>
	<path class="st0" d="M361.8,126h-56.4V97.8h-28.2V126H164.4V97.8h-28.2V126H79.8c-15.6,0-28.2,12.6-28.2,28.2v282
		c0,15.6,12.6,28.2,28.2,28.2h282c15.6,0,28.2-12.6,28.2-28.2v-282C390,138.6,377.4,126,361.8,126z M79.8,154.2h56.4v28.2h28.2
		v-28.2h112.8v28.2h28.2v-28.2h56.4v56.4h-282V154.2z M79.8,238.8h70.5v84.6H79.8V238.8z M263.1,436.2h-84.6v-84.6h84.6V436.2z
		 M263.1,323.4h-84.6v-84.6h84.6V323.4z M291.3,436.2v-84.6h70.5l0,84.6H291.3z"/>
	<circle class="st0" cx="390" cy="132" r="70.4"/>
	<g>
		<g>
			<g>
				<path class="st1" d="M397.2,92.1v29.8h29.2v16.1h-29.2v30.3H381v-30.3h-29.5v-16.1H381V92.1H397.2z"/>
			</g>
		</g>
	</g>
</g>
</svg>
