<?xml version="1.0" encoding="UTF-8"?>
<svg xmlns="http://www.w3.org/2000/svg" xmlns:xlink="http://www.w3.org/1999/xlink" viewBox="0 0 28.64 27.56">
  <defs>
    <style>
      .cls-1 {
        fill: url(#linear-gradient-61);
      }

      .cls-2 {
        fill: url(#linear-gradient-15);
      }

      .cls-3 {
        fill: url(#linear-gradient-13);
      }

      .cls-4 {
        fill: url(#linear-gradient-107);
      }

      .cls-5 {
        fill: url(#linear-gradient-28);
      }

      .cls-6 {
        fill: url(#linear-gradient-65);
      }

      .cls-7 {
        fill: url(#linear-gradient-69);
      }

      .cls-8 {
        fill: url(#linear-gradient-53);
      }

      .cls-9 {
        fill: url(#linear-gradient-42);
      }

      .cls-10 {
        fill: url(#linear-gradient-46);
      }

      .cls-11 {
        fill: #fff;
        font-family: NotoSansTC-Bold, 'Noto Sans TC';
        font-size: 4px;
        font-variation-settings: 'wght' 700;
        font-weight: 700;
      }

      .cls-12 {
        fill: url(#linear-gradient-70);
      }

      .cls-13 {
        fill: url(#linear-gradient-60);
      }

      .cls-14 {
        fill: url(#linear-gradient-93);
      }

      .cls-15 {
        fill: url(#linear-gradient-95);
      }

      .cls-16 {
        stroke: url(#linear-gradient-116);
      }

      .cls-16, .cls-17, .cls-18, .cls-19 {
        fill: none;
        stroke-linecap: round;
        stroke-linejoin: round;
      }

      .cls-20 {
        fill: url(#linear-gradient-2);
      }

      .cls-21 {
        fill: url(#linear-gradient-100);
      }

      .cls-22 {
        fill: url(#linear-gradient-87);
      }

      .cls-23 {
        fill: url(#linear-gradient-64);
      }

      .cls-24 {
        fill: url(#linear-gradient-56);
      }

      .cls-25 {
        fill: url(#linear-gradient-43);
      }

      .cls-26 {
        fill: url(#linear-gradient-25);
      }

      .cls-27 {
        fill: url(#linear-gradient-82);
      }

      .cls-28 {
        fill: url(#linear-gradient-10);
      }

      .cls-28, .cls-29, .cls-30, .cls-31, .cls-32 {
        mix-blend-mode: screen;
      }

      .cls-33 {
        fill: url(#linear-gradient-12);
      }

      .cls-34 {
        fill: url(#linear-gradient-40);
      }

      .cls-35 {
        fill: url(#linear-gradient-27);
      }

      .cls-36 {
        fill: url(#linear-gradient-68);
      }

      .cls-29 {
        fill: url(#linear-gradient-9);
      }

      .cls-37 {
        fill: url(#linear-gradient-37);
      }

      .cls-38 {
        fill: url(#linear-gradient-75);
      }

      .cls-39 {
        fill: url(#linear-gradient-55);
      }

      .cls-40 {
        fill: url(#linear-gradient-39);
      }

      .cls-41 {
        fill: url(#linear-gradient-89);
      }

      .cls-42 {
        fill: url(#linear-gradient-52);
      }

      .cls-43 {
        fill: url(#linear-gradient-113);
      }

      .cls-44 {
        fill: url(#linear-gradient-58);
      }

      .cls-45 {
        fill: url(#linear-gradient-47);
      }

      .cls-46 {
        fill: url(#linear-gradient-26);
      }

      .cls-47 {
        fill: url(#linear-gradient-74);
      }

      .cls-48 {
        fill: url(#linear-gradient-97);
      }

      .cls-49 {
        fill: url(#linear-gradient-72);
      }

      .cls-50 {
        fill: url(#linear-gradient-4);
      }

      .cls-51 {
        fill: url(#linear-gradient-35);
      }

      .cls-52 {
        fill: url(#linear-gradient-30);
      }

      .cls-53 {
        fill: url(#linear-gradient-76);
      }

      .cls-54 {
        fill: url(#linear-gradient-109);
      }

      .cls-55 {
        fill: url(#linear-gradient-73);
      }

      .cls-56 {
        fill: url(#linear-gradient-71);
      }

      .cls-57 {
        fill: url(#linear-gradient-44);
      }

      .cls-58, .cls-31 {
        opacity: .8;
      }

      .cls-59 {
        fill: url(#linear-gradient-96);
      }

      .cls-60 {
        fill: url(#linear-gradient-49);
      }

      .cls-61 {
        fill: url(#linear-gradient-3);
      }

      .cls-62 {
        fill: url(#linear-gradient-34);
      }

      .cls-63 {
        fill: url(#linear-gradient-5);
      }

      .cls-30 {
        fill: url(#linear-gradient-8);
      }

      .cls-64 {
        fill: url(#linear-gradient-38);
      }

      .cls-65 {
        fill: url(#linear-gradient-91);
      }

      .cls-66 {
        fill: url(#linear-gradient-22);
      }

      .cls-67 {
        fill: url(#linear-gradient-24);
      }

      .cls-68 {
        fill: url(#linear-gradient-94);
      }

      .cls-69 {
        fill: url(#linear-gradient-54);
      }

      .cls-70 {
        isolation: isolate;
      }

      .cls-31 {
        fill: url(#linear-gradient-6);
      }

      .cls-71 {
        fill: url(#linear-gradient-92);
      }

      .cls-72 {
        fill: url(#linear-gradient-90);
      }

      .cls-73 {
        fill: url(#linear-gradient-33);
      }

      .cls-74 {
        fill: url(#linear-gradient-79);
      }

      .cls-75 {
        fill: url(#linear-gradient-78);
      }

      .cls-76 {
        fill: url(#linear-gradient-51);
      }

      .cls-77 {
        fill: url(#linear-gradient-66);
      }

      .cls-78 {
        fill: url(#linear-gradient-57);
      }

      .cls-79 {
        fill: url(#linear-gradient-77);
      }

      .cls-80 {
        fill: url(#linear-gradient-103);
      }

      .cls-81 {
        fill: url(#linear-gradient-110);
      }

      .cls-82 {
        fill: url(#linear-gradient-88);
      }

      .cls-83 {
        fill: url(#linear-gradient-14);
      }

      .cls-84 {
        fill: url(#linear-gradient-62);
      }

      .cls-85 {
        fill: url(#linear-gradient-29);
      }

      .cls-86 {
        fill: url(#linear-gradient-20);
      }

      .cls-87 {
        fill: url(#linear-gradient-106);
      }

      .cls-88 {
        fill: url(#linear-gradient-67);
      }

      .cls-89 {
        fill: url(#linear-gradient-17);
      }

      .cls-90 {
        fill: url(#linear-gradient-50);
      }

      .cls-17 {
        stroke: url(#linear-gradient-115);
      }

      .cls-91 {
        fill: url(#linear-gradient-104);
      }

      .cls-92 {
        fill: url(#linear-gradient-59);
      }

      .cls-93 {
        fill: url(#linear-gradient-11);
      }

      .cls-94 {
        fill: url(#linear-gradient-108);
      }

      .cls-95 {
        fill: url(#linear-gradient-19);
      }

      .cls-96 {
        fill: url(#linear-gradient-101);
      }

      .cls-97 {
        fill: url(#linear-gradient-80);
      }

      .cls-18 {
        stroke: url(#linear-gradient-117);
      }

      .cls-98 {
        fill: url(#linear-gradient-83);
      }

      .cls-99 {
        fill: url(#linear-gradient-112);
      }

      .cls-100 {
        fill: url(#linear-gradient-105);
      }

      .cls-101 {
        fill: url(#linear-gradient-36);
      }

      .cls-102 {
        fill: url(#linear-gradient-21);
      }

      .cls-103 {
        fill: url(#linear-gradient-45);
      }

      .cls-104 {
        fill: url(#linear-gradient-85);
      }

      .cls-105 {
        fill: url(#linear-gradient-98);
      }

      .cls-106 {
        fill: url(#linear-gradient-81);
      }

      .cls-107 {
        fill: url(#linear-gradient-84);
      }

      .cls-108 {
        fill: url(#linear-gradient-114);
      }

      .cls-32 {
        fill: url(#linear-gradient-7);
      }

      .cls-109 {
        fill: url(#linear-gradient-48);
      }

      .cls-110 {
        fill: url(#linear-gradient-102);
      }

      .cls-111 {
        fill: url(#linear-gradient-32);
      }

      .cls-112 {
        fill: url(#linear-gradient-86);
      }

      .cls-113 {
        fill: url(#linear-gradient-41);
      }

      .cls-114 {
        fill: url(#linear-gradient-16);
      }

      .cls-115 {
        fill: url(#linear-gradient-111);
      }

      .cls-116 {
        fill: url(#linear-gradient);
      }

      .cls-19 {
        stroke: url(#linear-gradient-118);
      }

      .cls-117 {
        fill: url(#linear-gradient-23);
      }

      .cls-118 {
        fill: url(#linear-gradient-31);
      }

      .cls-119 {
        fill: url(#linear-gradient-63);
      }

      .cls-120 {
        fill: url(#linear-gradient-99);
      }

      .cls-121 {
        fill: url(#linear-gradient-18);
      }
    </style>
    <linearGradient id="linear-gradient" x1="899.35" y1="3.7" x2="880" y2="24.48" gradientTransform="translate(904.29) rotate(-180) scale(1 -1)" gradientUnits="userSpaceOnUse">
      <stop offset="0" stop-color="#a27b39"/>
      <stop offset=".02" stop-color="#ad863c"/>
      <stop offset=".06" stop-color="#c69f43"/>
      <stop offset=".11" stop-color="#d8b148"/>
      <stop offset=".16" stop-color="#e2bb4c"/>
      <stop offset=".22" stop-color="#e6bf4d"/>
      <stop offset=".46" stop-color="#f0db79"/>
      <stop offset=".66" stop-color="#e1bb3c"/>
      <stop offset=".92" stop-color="#a07732"/>
    </linearGradient>
    <linearGradient id="linear-gradient-2" x1="900.16" y1="5.21" x2="879.95" y2="22.2" gradientTransform="translate(904.29) rotate(-180) scale(1 -1)" gradientUnits="userSpaceOnUse">
      <stop offset="0" stop-color="#a57623"/>
      <stop offset=".51" stop-color="#c8a33a"/>
      <stop offset="1" stop-color="#a97c24"/>
    </linearGradient>
    <linearGradient id="linear-gradient-3" x1="898.44" y1="4.52" x2="881.55" y2="22.98" gradientTransform="translate(904.29) rotate(-180) scale(1 -1)" gradientUnits="userSpaceOnUse">
      <stop offset="0" stop-color="#cca547"/>
      <stop offset=".31" stop-color="#f4ce56"/>
      <stop offset=".5" stop-color="#f7e284"/>
      <stop offset=".69" stop-color="#f4ce56"/>
      <stop offset=".87" stop-color="#da9a37"/>
      <stop offset=".97" stop-color="#f4ce56"/>
      <stop offset="1" stop-color="#f4ce56"/>
    </linearGradient>
    <linearGradient id="linear-gradient-4" x1="880.03" y1="6.26" x2="899.88" y2="21.29" gradientTransform="translate(904.29) rotate(-180) scale(1 -1)" gradientUnits="userSpaceOnUse">
      <stop offset=".06" stop-color="#956a25"/>
      <stop offset=".59" stop-color="#a17824"/>
      <stop offset=".95" stop-color="#956a25"/>
    </linearGradient>
    <linearGradient id="linear-gradient-5" x1="881.46" y1="5.52" x2="900.1" y2="23.55" gradientTransform="translate(904.29) rotate(-180) scale(1 -1)" gradientUnits="userSpaceOnUse">
      <stop offset="0" stop-color="#a27b39"/>
      <stop offset=".02" stop-color="#ad863c"/>
      <stop offset=".06" stop-color="#c69f43"/>
      <stop offset=".11" stop-color="#d8b148"/>
      <stop offset=".16" stop-color="#e2bb4c"/>
      <stop offset=".22" stop-color="#e6bf4d"/>
      <stop offset=".46" stop-color="#f7e893"/>
      <stop offset=".66" stop-color="#e1bb3c"/>
      <stop offset=".92" stop-color="#a07732"/>
    </linearGradient>
    <linearGradient id="linear-gradient-6" x1="886.71" y1="7.82" x2="892.94" y2="7.82" gradientTransform="translate(904.29) rotate(-180) scale(1 -1)" gradientUnits="userSpaceOnUse">
      <stop offset=".09" stop-color="#040000"/>
      <stop offset=".51" stop-color="#a6a66c"/>
      <stop offset=".95" stop-color="#040000"/>
    </linearGradient>
    <linearGradient id="linear-gradient-7" x1="716.27" y1="-234.1" x2="722.5" y2="-234.1" gradientTransform="translate(453.68 -600.09) rotate(108) scale(1 -1)" xlink:href="#linear-gradient-6"/>
    <linearGradient id="linear-gradient-8" x1="434.36" y1="-147.29" x2="440.59" y2="-147.29" gradientTransform="translate(-256.66 -357.82) rotate(35.99) scale(1 -1)" xlink:href="#linear-gradient-6"/>
    <linearGradient id="linear-gradient-9" x1="430.24" y1="148.58" x2="436.47" y2="148.58" gradientTransform="translate(-245.48 393.56) rotate(-36.01) scale(1 -1)" xlink:href="#linear-gradient-6"/>
    <linearGradient id="linear-gradient-10" x1="709.56" y1="244" x2="715.79" y2="244" gradientTransform="translate(472.41 614.34) rotate(-108.01) scale(1 -1)" xlink:href="#linear-gradient-6"/>
    <linearGradient id="linear-gradient-11" x1="892.25" y1="6.26" x2="881.57" y2="26" gradientTransform="translate(904.29) rotate(-180) scale(1 -1)" gradientUnits="userSpaceOnUse">
      <stop offset=".06" stop-color="#956a25"/>
      <stop offset=".59" stop-color="#a17824"/>
      <stop offset=".95" stop-color="#825524"/>
    </linearGradient>
    <linearGradient id="linear-gradient-12" x1="885.97" y1=".78" x2="885.97" y2="29.25" gradientTransform="translate(904.29) rotate(-180) scale(1 -1)" gradientUnits="userSpaceOnUse">
      <stop offset="0" stop-color="#a27b39"/>
      <stop offset=".02" stop-color="#ad863c"/>
      <stop offset=".06" stop-color="#c69f43"/>
      <stop offset=".11" stop-color="#d8b148"/>
      <stop offset=".16" stop-color="#e2bb4c"/>
      <stop offset=".22" stop-color="#e6bf4d"/>
      <stop offset=".66" stop-color="#e1bb3c"/>
      <stop offset="1" stop-color="#b17f27"/>
    </linearGradient>
    <linearGradient id="linear-gradient-13" x1="894.67" y1="1.63" x2="894.67" y2="29.49" xlink:href="#linear-gradient-4"/>
    <linearGradient id="linear-gradient-14" x1="894.65" y1=".78" x2="894.65" y2="29.25" gradientTransform="translate(904.29) rotate(-180) scale(1 -1)" gradientUnits="userSpaceOnUse">
      <stop offset="0" stop-color="#a27b39"/>
      <stop offset=".02" stop-color="#ad863c"/>
      <stop offset=".06" stop-color="#c69f43"/>
      <stop offset=".11" stop-color="#d8b148"/>
      <stop offset=".16" stop-color="#e2bb4c"/>
      <stop offset=".22" stop-color="#e6bf4d"/>
      <stop offset=".66" stop-color="#e1bb3c"/>
      <stop offset=".92" stop-color="#a07732"/>
    </linearGradient>
    <linearGradient id="linear-gradient-15" x1="880.85" y1="4.92" x2="888.25" y2="12.08" gradientTransform="translate(904.29) rotate(-180) scale(1 -1)" gradientUnits="userSpaceOnUse">
      <stop offset="0" stop-color="#a27b39"/>
      <stop offset=".02" stop-color="#ad863c"/>
      <stop offset=".06" stop-color="#c69f43"/>
      <stop offset=".11" stop-color="#d8b148"/>
      <stop offset=".16" stop-color="#e2bb4c"/>
      <stop offset=".22" stop-color="#e6bf4d"/>
      <stop offset=".51" stop-color="#f7e893"/>
      <stop offset=".72" stop-color="#e1bb3c"/>
      <stop offset=".92" stop-color="#b18f57"/>
      <stop offset="1" stop-color="#f4ce56"/>
    </linearGradient>
    <linearGradient id="linear-gradient-16" x1="881.57" y1="5.64" x2="896.28" y2="19.86" gradientTransform="translate(153.8 892.82) rotate(-98.13) scale(1 -1)" xlink:href="#linear-gradient-15"/>
    <linearGradient id="linear-gradient-17" x1="881.41" y1="5.48" x2="900.6" y2="24.03" xlink:href="#linear-gradient-15"/>
    <linearGradient id="linear-gradient-18" x1="881.65" y1="5.71" x2="892.82" y2="16.52" xlink:href="#linear-gradient-15"/>
    <linearGradient id="linear-gradient-19" x1="881.23" y1="5.3" x2="887.63" y2="11.49" xlink:href="#linear-gradient-15"/>
    <linearGradient id="linear-gradient-20" x1="881.24" y1="5.32" x2="889.67" y2="13.47" xlink:href="#linear-gradient-15"/>
    <linearGradient id="linear-gradient-21" x1="888.13" y1="11.98" x2="891.81" y2="15.54" xlink:href="#linear-gradient-15"/>
    <linearGradient id="linear-gradient-22" x1="883.16" y1="7.16" x2="887.81" y2="11.66" xlink:href="#linear-gradient-15"/>
    <linearGradient id="linear-gradient-23" x1="888.13" y1="11.96" x2="891.81" y2="15.52" xlink:href="#linear-gradient-15"/>
    <linearGradient id="linear-gradient-24" x1="887.71" y1="11.57" x2="892.21" y2="15.92" xlink:href="#linear-gradient-15"/>
    <linearGradient id="linear-gradient-25" x1="881.27" y1="5.35" x2="889.46" y2="13.26" xlink:href="#linear-gradient-15"/>
    <linearGradient id="linear-gradient-26" x1="880.9" y1="5" x2="892.05" y2="15.78" xlink:href="#linear-gradient-15"/>
    <linearGradient id="linear-gradient-27" x1="880.22" y1="4.34" x2="888.37" y2="12.23" xlink:href="#linear-gradient-15"/>
    <linearGradient id="linear-gradient-28" x1="881.37" y1="5.44" x2="895.17" y2="18.79" xlink:href="#linear-gradient-15"/>
    <linearGradient id="linear-gradient-29" x1="881.44" y1="5.5" x2="900.57" y2="24" xlink:href="#linear-gradient-15"/>
    <linearGradient id="linear-gradient-30" x1="881.09" y1="5.16" x2="890.24" y2="14.01" gradientTransform="translate(758.67 501.78) rotate(-145.86) scale(1 -1)" xlink:href="#linear-gradient-15"/>
    <linearGradient id="linear-gradient-31" x1="879.76" y1="3.89" x2="889.91" y2="13.71" gradientTransform="translate(706.82 572.92) rotate(-140.19) scale(1 -1)" xlink:href="#linear-gradient-15"/>
    <linearGradient id="linear-gradient-32" x1="888.6" y1="12.44" x2="891.32" y2="15.06" xlink:href="#linear-gradient-15"/>
    <linearGradient id="linear-gradient-33" x1="880.4" y1="4.5" x2="889.46" y2="13.26" xlink:href="#linear-gradient-15"/>
    <linearGradient id="linear-gradient-34" x1="881.59" y1="5.64" x2="900.38" y2="23.82" xlink:href="#linear-gradient-15"/>
    <linearGradient id="linear-gradient-35" x1="889.02" y1="12.85" x2="890.89" y2="14.67" xlink:href="#linear-gradient-15"/>
    <linearGradient id="linear-gradient-36" x1="889.06" y1="12.87" x2="890.87" y2="14.62" xlink:href="#linear-gradient-15"/>
    <linearGradient id="linear-gradient-37" x1="881.02" y1="5.1" x2="896.57" y2="20.14" xlink:href="#linear-gradient-15"/>
    <linearGradient id="linear-gradient-38" x1="881.53" y1="5.59" x2="893.86" y2="17.51" xlink:href="#linear-gradient-15"/>
    <linearGradient id="linear-gradient-39" x1="881.41" y1="5.47" x2="892.49" y2="16.19" gradientTransform="translate(321.3 849.21) rotate(-109.29) scale(1 -1)" xlink:href="#linear-gradient-15"/>
    <linearGradient id="linear-gradient-40" x1="881.31" y1="5.38" x2="896.17" y2="19.76" xlink:href="#linear-gradient-15"/>
    <linearGradient id="linear-gradient-41" x1="881.67" y1="5.71" x2="900.3" y2="23.73" xlink:href="#linear-gradient-15"/>
    <linearGradient id="linear-gradient-42" x1="880.57" y1="4.67" x2="888.09" y2="11.95" xlink:href="#linear-gradient-15"/>
    <linearGradient id="linear-gradient-43" x1="881.87" y1="5.92" x2="893.85" y2="17.51" gradientTransform="translate(751.29 512.84) rotate(-145.01) scale(1 -1)" xlink:href="#linear-gradient-15"/>
    <linearGradient id="linear-gradient-44" x1="881.21" y1="5.27" x2="898" y2="21.52" xlink:href="#linear-gradient-15"/>
    <linearGradient id="linear-gradient-45" x1="888.58" y1="12.4" x2="891.36" y2="15.09" xlink:href="#linear-gradient-15"/>
    <linearGradient id="linear-gradient-46" x1="881.86" y1="5.91" x2="890.86" y2="14.61" gradientTransform="translate(424.62 803.61) rotate(-116.57) scale(1 -1)" xlink:href="#linear-gradient-15"/>
    <linearGradient id="linear-gradient-47" x1="881.37" y1="5.43" x2="900.66" y2="24.09" xlink:href="#linear-gradient-15"/>
    <linearGradient id="linear-gradient-48" x1="881.56" y1="5.6" x2="900.43" y2="23.86" xlink:href="#linear-gradient-15"/>
    <linearGradient id="linear-gradient-49" x1="881.34" y1="5.4" x2="900.69" y2="24.12" xlink:href="#linear-gradient-15"/>
    <linearGradient id="linear-gradient-50" x1="881.42" y1="5.48" x2="890.54" y2="14.3" gradientTransform="translate(762.44 495.97) rotate(-146.31) scale(1 -1)" xlink:href="#linear-gradient-15"/>
    <linearGradient id="linear-gradient-51" x1="881.64" y1="5.69" x2="892.63" y2="16.32" gradientTransform="translate(873.82 245.02) rotate(-164.05) scale(1 -1)" xlink:href="#linear-gradient-15"/>
    <linearGradient id="linear-gradient-52" x1="881.58" y1="5.64" x2="900.39" y2="23.83" gradientTransform="translate(824.5 382.3) rotate(-154.65) scale(1 -1)" xlink:href="#linear-gradient-15"/>
    <linearGradient id="linear-gradient-53" x1="881.45" y1="5.51" x2="899.99" y2="23.45" gradientTransform="translate(306.71 854.42) rotate(-108.29) scale(1 -1)" xlink:href="#linear-gradient-15"/>
    <linearGradient id="linear-gradient-54" x1="881.44" y1="5.5" x2="900.57" y2="24" xlink:href="#linear-gradient-15"/>
    <linearGradient id="linear-gradient-55" x1="887.66" y1="11.51" x2="892.28" y2="15.98" xlink:href="#linear-gradient-15"/>
    <linearGradient id="linear-gradient-56" x1="881.43" y1="5.48" x2="891.91" y2="15.63" gradientTransform="translate(816.48 399.46) rotate(-153.43) scale(1 -1)" xlink:href="#linear-gradient-15"/>
    <linearGradient id="linear-gradient-57" x1="881.74" y1="5.78" x2="900.2" y2="23.64" xlink:href="#linear-gradient-15"/>
    <linearGradient id="linear-gradient-58" x1="881.52" y1="5.57" x2="898.85" y2="22.34" xlink:href="#linear-gradient-15"/>
    <linearGradient id="linear-gradient-59" x1="881.52" y1="5.58" x2="900.47" y2="23.91" xlink:href="#linear-gradient-15"/>
    <linearGradient id="linear-gradient-60" x1="880.67" y1="4.75" x2="889.07" y2="12.87" gradientTransform="translate(268.85 866.65) rotate(-105.73) scale(1 -1)" xlink:href="#linear-gradient-15"/>
    <linearGradient id="linear-gradient-61" x1="881.12" y1="5.19" x2="890.33" y2="14.1" gradientTransform="translate(900.36 98.37) rotate(-173.66) scale(1 -1)" xlink:href="#linear-gradient-15"/>
    <linearGradient id="linear-gradient-62" x1="881.49" y1="5.54" x2="900.52" y2="23.94" gradientTransform="translate(440.98 794.89) rotate(-117.76) scale(1 -1)" xlink:href="#linear-gradient-15"/>
    <linearGradient id="linear-gradient-63" x1="881.54" y1="5.59" x2="900.45" y2="23.88" gradientTransform="translate(841.11 343.35) rotate(-157.38) scale(1 -1)" xlink:href="#linear-gradient-15"/>
    <linearGradient id="linear-gradient-64" x1="888.15" y1="11.98" x2="891.8" y2="15.52" xlink:href="#linear-gradient-15"/>
    <linearGradient id="linear-gradient-65" x1="881.38" y1="5.44" x2="900.64" y2="24.07" xlink:href="#linear-gradient-15"/>
    <linearGradient id="linear-gradient-66" x1="881.07" y1="5.14" x2="899.58" y2="23.05" gradientTransform="translate(424.62 803.61) rotate(-116.57) scale(1 -1)" xlink:href="#linear-gradient-15"/>
    <linearGradient id="linear-gradient-67" x1="881.49" y1="5.53" x2="892.27" y2="15.96" xlink:href="#linear-gradient-15"/>
    <linearGradient id="linear-gradient-68" x1="880.95" y1="5.03" x2="892.85" y2="16.54" xlink:href="#linear-gradient-15"/>
    <linearGradient id="linear-gradient-69" x1="881.42" y1="5.49" x2="900.58" y2="24.02" xlink:href="#linear-gradient-15"/>
    <linearGradient id="linear-gradient-70" x1="882.45" y1="6.48" x2="888.97" y2="12.79" gradientTransform="translate(894.44 146.5) rotate(-170.54) scale(1 -1)" xlink:href="#linear-gradient-15"/>
    <linearGradient id="linear-gradient-71" x1="881.33" y1="5.38" x2="891.47" y2="15.2" gradientTransform="translate(837.74 351.69) rotate(-156.8) scale(1 -1)" xlink:href="#linear-gradient-15"/>
    <linearGradient id="linear-gradient-72" x1="881.4" y1="5.45" x2="898.67" y2="22.15" gradientTransform="translate(891.14 166.77) rotate(-169.22) scale(1 -1)" xlink:href="#linear-gradient-15"/>
    <linearGradient id="linear-gradient-73" x1="881.12" y1="5.18" x2="900.97" y2="24.39" gradientTransform="translate(452.55 788.47) rotate(-118.61) scale(1 -1)" xlink:href="#linear-gradient-15"/>
    <linearGradient id="linear-gradient-74" x1="888.58" y1="12.41" x2="891.36" y2="15.1" xlink:href="#linear-gradient-15"/>
    <linearGradient id="linear-gradient-75" x1="881.44" y1="5.5" x2="900.57" y2="24" xlink:href="#linear-gradient-15"/>
    <linearGradient id="linear-gradient-76" x1="881.74" y1="5.78" x2="898.19" y2="21.7" gradientTransform="translate(816.48 399.46) rotate(-153.43) scale(1 -1)" xlink:href="#linear-gradient-15"/>
    <linearGradient id="linear-gradient-77" x1="881.76" y1="5.82" x2="891.07" y2="14.82" gradientTransform="translate(581.02 700.11) rotate(-128.66) scale(1 -1)" xlink:href="#linear-gradient-15"/>
    <linearGradient id="linear-gradient-78" x1="881" y1="5.07" x2="891.21" y2="14.95" gradientTransform="translate(377.53 826.35) rotate(-113.2) scale(1 -1)" xlink:href="#linear-gradient-15"/>
    <linearGradient id="linear-gradient-79" x1="881.77" y1="5.8" x2="887.75" y2="11.59" xlink:href="#linear-gradient-15"/>
    <linearGradient id="linear-gradient-80" x1="880.85" y1="4.94" x2="892.03" y2="15.75" xlink:href="#linear-gradient-15"/>
    <linearGradient id="linear-gradient-81" x1="881.7" y1="5.77" x2="900.23" y2="23.69" xlink:href="#linear-gradient-15"/>
    <linearGradient id="linear-gradient-82" x1="881.48" y1="5.56" x2="900.49" y2="23.95" gradientTransform="translate(105.61 899.14) rotate(-95) scale(1 -1)" xlink:href="#linear-gradient-15"/>
    <linearGradient id="linear-gradient-83" x1="881.79" y1="5.83" x2="893.33" y2="17" gradientTransform="translate(762.44 495.98) rotate(-146.31) scale(1 -1)" xlink:href="#linear-gradient-15"/>
    <linearGradient id="linear-gradient-84" x1="881.52" y1="5.57" x2="892.66" y2="16.35" gradientTransform="translate(879.44 223.04) rotate(-165.52) scale(1 -1)" xlink:href="#linear-gradient-15"/>
    <linearGradient id="linear-gradient-85" x1="881.62" y1="5.68" x2="896.48" y2="20.05" xlink:href="#linear-gradient-15"/>
    <linearGradient id="linear-gradient-86" x1="888.99" y1="12.81" x2="890.95" y2="14.71" xlink:href="#linear-gradient-15"/>
    <linearGradient id="linear-gradient-87" x1="882.11" y1="6.15" x2="893.07" y2="16.75" gradientTransform="translate(685.04 598.88) rotate(-138.01) scale(1 -1)" xlink:href="#linear-gradient-15"/>
    <linearGradient id="linear-gradient-88" x1="881.62" y1="5.68" x2="897.47" y2="21.02" xlink:href="#linear-gradient-15"/>
    <linearGradient id="linear-gradient-89" x1="881.4" y1="5.46" x2="899.94" y2="23.4" xlink:href="#linear-gradient-15"/>
    <linearGradient id="linear-gradient-90" x1="881.54" y1="5.61" x2="898.14" y2="21.67" gradientTransform="translate(900.36 98.36) rotate(-173.66) scale(1 -1)" xlink:href="#linear-gradient-15"/>
    <linearGradient id="linear-gradient-91" x1="881.25" y1="5.32" x2="892.27" y2="15.98" gradientTransform="translate(897.29 126) rotate(-171.87) scale(1 -1)" xlink:href="#linear-gradient-15"/>
    <linearGradient id="linear-gradient-92" x1="881.35" y1="5.43" x2="900.66" y2="24.11" xlink:href="#linear-gradient-15"/>
    <linearGradient id="linear-gradient-93" x1="881.53" y1="5.6" x2="900.44" y2="23.89" gradientTransform="translate(725.27 549.28) rotate(-142.13) scale(1 -1)" xlink:href="#linear-gradient-15"/>
    <linearGradient id="linear-gradient-94" x1="881.25" y1="5.34" x2="888.13" y2="11.99" gradientTransform="translate(751.3 512.84) rotate(-145.01) scale(1 -1)" xlink:href="#linear-gradient-15"/>
    <linearGradient id="linear-gradient-95" x1="881.5" y1="5.56" x2="900.49" y2="23.93" xlink:href="#linear-gradient-15"/>
    <linearGradient id="linear-gradient-96" x1="881.59" y1="5.65" x2="895.63" y2="19.23" gradientTransform="translate(581.02 700.12) rotate(-128.66) scale(1 -1)" xlink:href="#linear-gradient-15"/>
    <linearGradient id="linear-gradient-97" x1="881.75" y1="5.81" x2="900.17" y2="23.62" xlink:href="#linear-gradient-15"/>
    <linearGradient id="linear-gradient-98" x1="888.56" y1="12.4" x2="891.37" y2="15.12" xlink:href="#linear-gradient-15"/>
    <linearGradient id="linear-gradient-99" x1="881.81" y1="5.87" x2="890.21" y2="13.99" xlink:href="#linear-gradient-15"/>
    <linearGradient id="linear-gradient-100" x1="881.54" y1="5.61" x2="900.42" y2="23.87" xlink:href="#linear-gradient-15"/>
    <linearGradient id="linear-gradient-101" x1="881.73" y1="5.79" x2="900.19" y2="23.65" gradientTransform="translate(130 896.26) rotate(-96.58) scale(1 -1)" xlink:href="#linear-gradient-15"/>
    <linearGradient id="linear-gradient-102" x1="881.1" y1="5.19" x2="889.5" y2="13.31" gradientTransform="translate(647.18 639.63) rotate(-134.43) scale(1 -1)" xlink:href="#linear-gradient-15"/>
    <linearGradient id="linear-gradient-103" x1="881.8" y1="5.86" x2="893.61" y2="17.28" gradientTransform="translate(698.99 582.49) rotate(-139.4) scale(1 -1)" xlink:href="#linear-gradient-15"/>
    <linearGradient id="linear-gradient-104" x1="881.21" y1="5.29" x2="900.83" y2="24.27" xlink:href="#linear-gradient-15"/>
    <linearGradient id="linear-gradient-105" x1="881.25" y1="5.33" x2="900.79" y2="24.23" xlink:href="#linear-gradient-15"/>
    <linearGradient id="linear-gradient-106" x1="881.13" y1="5.22" x2="893.69" y2="17.36" xlink:href="#linear-gradient-15"/>
    <linearGradient id="linear-gradient-107" x1="881.24" y1="5.32" x2="891.24" y2="14.99" xlink:href="#linear-gradient-15"/>
    <linearGradient id="linear-gradient-108" x1="881.14" y1="5.22" x2="900.93" y2="24.36" gradientTransform="translate(285.58 861.47) rotate(-106.86) scale(1 -1)" xlink:href="#linear-gradient-15"/>
    <linearGradient id="linear-gradient-109" x1="881.51" y1="5.58" x2="900.46" y2="23.91" gradientTransform="translate(713.71 564.29) rotate(-140.91) scale(1 -1)" xlink:href="#linear-gradient-15"/>
    <linearGradient id="linear-gradient-110" x1="881.61" y1="5.68" x2="900.34" y2="23.8" xlink:href="#linear-gradient-15"/>
    <linearGradient id="linear-gradient-111" x1="881.29" y1="5.37" x2="900.74" y2="24.18" xlink:href="#linear-gradient-15"/>
    <linearGradient id="linear-gradient-112" x1="889.04" y1="12.86" x2="890.88" y2="14.65" xlink:href="#linear-gradient-15"/>
    <linearGradient id="linear-gradient-113" x1="881.08" y1="5.17" x2="896.75" y2="20.33" xlink:href="#linear-gradient-15"/>
    <linearGradient id="linear-gradient-114" x1="881.6" y1="5.67" x2="895.62" y2="19.22" gradientTransform="translate(653.35 633.33) rotate(-135) scale(1 -1)" xlink:href="#linear-gradient-15"/>
    <linearGradient id="linear-gradient-115" x1="9.87" y1="13.14" x2="18.55" y2="13.14" gradientTransform="matrix(1,0,0,1,0,0)" xlink:href="#linear-gradient"/>
    <linearGradient id="linear-gradient-116" x1="9.87" y1="13.14" x2="18.55" y2="13.14" gradientTransform="matrix(1,0,0,1,0,0)" xlink:href="#linear-gradient"/>
    <linearGradient id="linear-gradient-117" x1="9.87" y1="13.14" x2="18.55" y2="13.14" gradientTransform="matrix(1,0,0,1,0,0)" xlink:href="#linear-gradient"/>
    <linearGradient id="linear-gradient-118" x1="9.87" y1="13.14" x2="18.55" y2="13.14" gradientTransform="matrix(1,0,0,1,0,0)" xlink:href="#linear-gradient"/>
  </defs>
  <g class="cls-70">
    <g id="_圖層_3" data-name="圖層 3">
      <g>
        <g>
          <path class="cls-116" d="M0,13.78c0,1.5,1.09,2.8,1.53,4.15.45,1.4.35,3.1,1.2,4.26.86,1.18,2.51,1.6,3.69,2.46,1.17.85,2.07,2.29,3.47,2.75,1.35.44,2.93-.18,4.43-.18s3.08.62,4.43.18c1.4-.45,2.31-1.9,3.47-2.75,1.18-.86,2.83-1.28,3.69-2.46.85-1.17.75-2.86,1.2-4.26.44-1.35,1.53-2.66,1.53-4.15s-1.09-2.8-1.53-4.15c-.45-1.4-.35-3.1-1.2-4.26-.86-1.18-2.51-1.6-3.69-2.46-1.17-.85-2.07-2.29-3.47-2.75-1.35-.44-2.93.18-4.43.18s-3.08-.62-4.43-.18c-1.4.45-2.31,1.9-3.47,2.75-1.18.86-2.83,1.28-3.69,2.46-.85,1.17-.75,2.86-1.2,4.26-.44,1.35-1.53,2.66-1.53,4.15Z"/>
          <path class="cls-20" d="M1.3,13.78c0,7.19,5.83,13.02,13.02,13.02s13.02-5.83,13.02-13.02S21.51.76,14.32.76,1.3,6.59,1.3,13.78Z"/>
          <path class="cls-61" d="M1.6,13.78c0,7.03,5.7,12.72,12.72,12.72s12.72-5.7,12.72-12.72S21.35,1.06,14.32,1.06,1.6,6.75,1.6,13.78Z"/>
          <path class="cls-50" d="M2.13,13.78c0,6.73,5.46,12.19,12.19,12.19s12.19-5.46,12.19-12.19S21.05,1.59,14.32,1.59,2.13,7.05,2.13,13.78Z"/>
          <path class="cls-63" d="M2.46,13.75c0,6.55,5.31,11.86,11.86,11.86s11.86-5.31,11.86-11.86S20.87,1.89,14.32,1.89,2.46,7.2,2.46,13.75Z"/>
          <path class="cls-31" d="M14.32,13.74l-3.17-11.43c1.01-.28,2.07-.43,3.16-.43s2.06.14,3.03.39l-3.02,11.46h0Z"/>
          <g class="cls-58">
            <path class="cls-32" d="M14.33,13.75l-11.85-.52c.05-1.04.23-2.1.57-3.14.32-1,.77-1.92,1.31-2.76l9.97,6.41h0Z"/>
            <path class="cls-30" d="M14.33,13.74l-4.15,11.11c-.98-.37-1.92-.87-2.81-1.51-.85-.62-1.59-1.32-2.22-2.1l9.18-7.5h0Z"/>
            <path class="cls-29" d="M14.33,13.74l9.28,7.38c-.65.82-1.42,1.56-2.31,2.2-.85.62-1.75,1.1-2.68,1.47l-4.29-11.05h0Z"/>
            <path class="cls-28" d="M14.33,13.74l9.89-6.54c.58.87,1.05,1.83,1.38,2.88.32,1,.51,2,.56,3l-11.83.67h0Z"/>
          </g>
          <g>
            <path class="cls-93" d="M11.34,24.83c.59-1.44,1.89-1.67,2.62-1.68.3.03.61.04.92.04.34,0,.68-.02,1.02-.05.4-.04.79-.12,1.08-.18l.11-.03c.14-.03.28-.07.42-.11.06-.02.11-.04.17-.05.1-.03.21-.06.32-.1,0,.02,0,.05,0,.08.03.11.15.2.37.29.01,0,.02,0,.03.01.05.02.13.05.26.06.03,0,.05,0,.08,0,.07,0,.14,0,.23-.02.12-.01.25-.05.47-.11.16-.06.26-.08.36-.08.1,0,.19.03.28.1l.09.07v-.11s.02-.06,0-.14c-.02-.07-.07-.19-.19-.32-.02-.02-.1-.11-.3-.17-.09-.03-.19-.05-.3-.07-.1-.01-.2-.01-.3-.01-.02,0-.03,0-.05,0,.37-.18.73-.39,1.08-.62,0,.02,0,.05.02.07.05.1.2.16.43.19.01,0,.03,0,.04,0,.03,0,.06,0,.11,0,.05,0,.1,0,.15-.01.1-.02.2-.05.3-.09.13-.06.28-.13.43-.22.18-.13.31-.18.43-.18.06,0,.12.01.19.04l.1.04-.02-.11s0-.06-.05-.13c-.04-.06-.12-.16-.27-.27-.03-.02-.13-.08-.33-.09-.03,0-.07,0-.11,0-.06,0-.13,0-.2.01-.11.01-.23.04-.34.07.32-.27.61-.56.89-.86.02.05.05.09.11.11.06.03.14.04.23.04.05,0,.11,0,.16-.01.01,0,.02,0,.04,0,.05,0,.13-.02.25-.07.06-.03.16-.07.27-.16.11-.08.23-.18.36-.32.11-.12.19-.19.28-.24.07-.04.14-.06.21-.06.03,0,.05,0,.08,0l.11.02-.04-.1s-.02-.05-.09-.11c-.05-.05-.15-.13-.32-.19-.02,0-.08-.03-.17-.03-.13,0-.4.03-.78.26.24-.34.46-.69.65-1.06.03.04.07.07.13.08.02,0,.05,0,.07,0,.09,0,.19-.03.32-.08.02,0,.03-.01.04-.02.12-.05.36-.14.71-.75.07-.14.14-.24.21-.3.07-.07.16-.11.27-.12h.11s-.07-.1-.07-.1c0,0-.04-.05-.11-.09-.06-.04-.18-.09-.36-.11,0,0-.02,0-.03,0-.06,0-.39.02-.84.47.15-.4.28-.79.37-1.19.03.03.08.05.14.05,0,0,0,0,.01,0,.1,0,.22-.06.36-.16.01-.01.02-.02.04-.03.11-.08.31-.23.5-.9.04-.16.08-.26.13-.34.06-.09.13-.15.23-.18l.1-.04-.09-.07s-.05-.04-.13-.06c-.06-.02-.13-.03-.21-.03-.05,0-.11,0-.16.01-.07,0-.18.06-.31.16-.15.12-.3.29-.42.5.05-.41.07-.82.07-1.24.03.01.05.02.09.02.02,0,.05,0,.07-.01.07-.02.18-.08.31-.25,0-.01.01-.02.02-.03.03-.04.09-.1.14-.22.08-.18.12-.43.13-.78,0-.16,0-.28.04-.36.04-.1.09-.17.18-.24l.09-.06-.1-.05s-.05-.02-.14-.03h-.02c-.11,0-.22.03-.35.08-.06.03-.16.1-.26.23-.04.06-.1.15-.16.27-.05.1-.09.21-.12.33-.05-.41-.13-.81-.24-1.22.01,0,.03,0,.04,0,.04,0,.08-.01.11-.04.09-.05.17-.16.24-.32,0-.01,0-.02.02-.03.02-.05.06-.12.08-.25,0-.05.01-.09.01-.14,0-.06,0-.11,0-.17,0-.07-.01-.14-.02-.22,0-.04-.01-.08-.02-.13,0-.05-.02-.09-.03-.14-.04-.15-.06-.27-.05-.36,0-.1.04-.19.12-.27l.07-.08-.11-.02s-.01,0-.04,0c-.03,0-.07,0-.1.01-.07.02-.19.06-.34.17-.11.08-.3.36-.32.93-.15-.39-.33-.76-.54-1.12.1,0,.23-.08.29-.43,0-.02,0-.03,0-.04.03-.13.08-.37-.25-1-.14-.27-.2-.43-.09-.63l.05-.1h-.11s-.06.01-.14.05c-.07.03-.17.1-.29.24-.04.05-.1.17-.12.33-.01.08-.02.19-.01.31,0,.11.02.23.05.35-.24-.34-.51-.65-.79-.95.03,0,.06-.03.09-.05.07-.08.1-.22.09-.44,0-.01,0-.03,0-.04,0-.05,0-.14-.05-.26-.06-.14-.16-.36-.44-.66-.11-.12-.18-.21-.22-.29-.04-.09-.05-.19-.02-.3l.02-.11-.11.03s-.06.02-.12.08c-.06.05-.14.14-.22.31-.03.06-.05.18-.04.35,0,.1.03.2.07.3.03.09.07.2.13.33-.32-.26-.66-.51-1-.73.02-.01.04-.03.06-.05.07-.09.06-.25,0-.47,0-.01,0-.02-.01-.03-.02-.05-.04-.13-.12-.24-.05-.07-.12-.15-.2-.23-.09-.09-.22-.19-.38-.3-.06-.04-.12-.08-.17-.12-.05-.04-.09-.07-.12-.11-.06-.08-.09-.17-.1-.28v-.11s-.1.06-.1.06c0,0-.05.03-.1.1-.04.06-.1.17-.13.35-.01.07,0,.19.05.34.06.17.17.35.35.56-.37-.18-.76-.33-1.16-.46.02-.02.03-.04.04-.06.04-.1,0-.26-.12-.46,0,0-.01-.02-.02-.03-.03-.05-.07-.12-.17-.21-.07-.06-.15-.12-.25-.18-.12-.07-.29-.14-.45-.2h-.02c-.13-.05-.24-.09-.32-.15-.08-.06-.13-.14-.16-.25l-.03-.11-.08.08s-.04.04-.07.12c-.03.07-.05.19-.04.37,0,.07.04.19.13.32.1.16.28.32.53.5.07.05.16.1.27.14-.02,0-.03,0-.05,0-.11,0-.2.01-.25.03-.25.05-.47.15-.63.3-.14.13-.18.24-.19.27-.04.13-.06.26-.05.37,0,.08.02.13.02.13l.05.14.06-.13c.05-.1.1-.16.18-.19.07-.03.14-.05.23-.05.02,0,.04,0,.05,0,.03,0,.05,0,.07,0,.12,0,.22,0,.3-.01h.04c.1-.01.19-.03.27-.05.1-.03.17-.07.21-.09.01,0,.02-.01.03-.02.21-.11.32-.22.34-.32,0-.02,0-.04,0-.06.38.12.74.27,1.1.43-.22,0-.42.05-.6.14-.16.09-.23.18-.25.22-.07.12-.12.24-.14.35-.02.08-.01.13-.01.13l.02.15.09-.11c.07-.08.14-.13.22-.14.03,0,.05,0,.08,0,.02,0,.03,0,.05,0,.05,0,.1.01.16.03.14.04.25.06.35.08h.05c.09.02.17.03.24.03h.03c.11,0,.18-.02.23-.04.01,0,.03,0,.04,0,.23-.06.36-.13.41-.23,0-.02.01-.04.02-.05.33.21.66.44.96.69-.12-.03-.23-.05-.32-.05h-.02c-.1,0-.19.01-.28.03-.18.05-.27.13-.3.15-.1.1-.17.2-.22.3-.04.08-.04.12-.04.13l-.02.14.12-.08c.08-.06.16-.09.23-.09,0,0,.01,0,.02,0,.08,0,.17.04.27.1.3.16.49.24.62.27.1.02.16.02.21.02h.06c.23,0,.38-.04.44-.12.01-.01.02-.03.03-.05.27.29.52.59.76.91-.1-.05-.2-.09-.29-.12-.1-.03-.2-.04-.3-.04-.19,0-.3.05-.33.07-.12.07-.22.15-.29.24-.05.06-.07.11-.07.11l-.05.13.14-.05c.06-.02.12-.04.17-.04.11,0,.21.05.33.18.44.42.65.47.77.5,0,0,.02,0,.03,0,.11.03.2.04.27.04.13,0,.2-.04.23-.09.19.34.36.7.51,1.07-.3-.27-.56-.33-.73-.33-.06,0-.11,0-.14.02-.14.04-.25.09-.34.16-.07.05-.1.09-.1.09l-.08.12.14-.02s.05,0,.07,0c.07,0,.13.02.19.05.06.04.12.1.19.22.33.52.52.62.62.67h.02c.16.09.27.13.36.13.06,0,.1-.02.14-.05.1.38.18.77.23,1.16-.06-.09-.12-.17-.2-.25-.08-.08-.16-.14-.24-.18-.16-.08-.27-.09-.31-.09h0c-.14,0-.26.03-.37.07-.08.03-.11.06-.12.06l-.11.09.14.02c.11.01.19.05.24.11.05.06.09.14.13.26.08.26.17.46.27.62.06.1.12.15.16.18,0,0,.02.02.03.02.14.12.24.19.32.21.02,0,.04,0,.06,0,.03,0,.06,0,.08-.02,0,.39-.02.79-.06,1.18-.08-.23-.19-.4-.32-.53-.14-.13-.26-.16-.29-.17-.09-.02-.18-.03-.26-.03-.04,0-.07,0-.11,0-.08.01-.13.03-.13.03l-.13.06.13.05c.1.04.17.09.21.16.04.07.06.15.06.28.03.61.16.79.22.89v.02c.11.15.2.24.27.28.04.02.07.03.11.03.01,0,.02,0,.04,0-.09.37-.21.75-.35,1.13-.05-.58-.33-.77-.42-.82-.13-.06-.25-.1-.36-.11-.03,0-.06,0-.08,0-.03,0-.05,0-.06,0l-.14.03.12.08c.09.06.14.13.16.21.02.07.02.16,0,.29-.12.6-.04.81,0,.92v.02c.07.16.13.27.19.34.04.04.09.06.13.06-.18.34-.39.68-.62,1.01.09-.58-.13-.83-.2-.9-.11-.09-.21-.16-.32-.2-.08-.03-.13-.03-.13-.03h-.14s.09.1.09.1c.07.08.1.16.11.25,0,.07-.02.16-.08.28-.12.24-.19.46-.22.64-.02.11-.01.19,0,.24,0,.01,0,.02,0,.03.02.19.04.3.09.37.04.06.08.08.11.09-.27.3-.55.57-.85.83.04-.1.08-.2.1-.31.02-.1.03-.2.02-.3-.01-.19-.08-.29-.1-.32-.08-.12-.17-.21-.26-.27-.07-.05-.11-.06-.12-.07l-.14-.04.06.13c.1.2.04.33-.11.52-.1.12-.18.23-.24.33-.06.09-.1.17-.13.23-.04.1-.06.18-.06.23,0,.01,0,.02,0,.03-.04.23-.03.38.04.46.01.02.03.03.05.04-.33.22-.67.42-1.03.59.07-.09.13-.18.17-.27.05-.1.08-.19.09-.28.03-.18,0-.3-.01-.33-.05-.13-.11-.24-.18-.32-.05-.06-.09-.09-.1-.09l-.12-.07.03.14c.04.2-.02.32-.23.47-.12.09-.22.17-.3.24l-.02.02c-.08.07-.14.13-.19.2-.07.09-.1.16-.12.2,0,.01-.01.02-.02.03-.1.21-.12.36-.07.46,0,.02.02.03.03.05-.1.04-.2.07-.3.1-.05.02-.1.03-.15.05-.12.04-.24.07-.36.1-.05.01-.11.03-.16.04-.29.06-.67.14-1.06.18-.33.04-.67.05-1,.05-.11,0-.22,0-.33,0-.04,0-.17-.01-.37-.03-.07,0-.15,0-.21-.01-.01,0-.03,0-.05,0-.09,0-.2.01-.2.01-.87.06-2.02.43-2.59,1.82l-.02.06.22.09.02-.06Z"/>
            <path class="cls-33" d="M11.18,24.77l.1.04c.6-1.47,1.92-1.71,2.67-1.72.64.06,1.29.06,1.93-.01.36-.04.72-.1,1.08-.18.18-.04.35-.09.53-.14.17-.06.35-.1.52-.17l.07.02c-.07.1-.02.23.31.36.05.02.12.06.27.07.08,0,.17,0,.3-.01.13-.02.28-.05.46-.11.29-.1.49-.13.7.03,0,0,0-.04-.02-.12-.02-.07-.07-.18-.18-.3-.03-.03-.11-.1-.27-.16-.08-.03-.17-.05-.29-.06-.11-.01-.25-.02-.41-.01-.09,0-.21.03-.35.06.52-.23,1.02-.5,1.49-.82h.08c-.05.11.03.23.39.28.05,0,.13.02.28,0,.07-.01.17-.04.29-.08.11-.05.25-.12.42-.22.25-.17.44-.24.68-.14,0,0,0-.04-.05-.11-.04-.07-.11-.15-.25-.25-.04-.03-.14-.07-.3-.08-.08,0-.18,0-.3,0-.12.01-.24.05-.4.09-.09.03-.2.08-.32.14.45-.35.87-.74,1.24-1.16l.08-.02c-.01.06.01.11.08.14.07.03.19.05.36.02.05-.01.13,0,.27-.07.07-.03.16-.08.26-.15.1-.08.22-.17.36-.32.1-.11.19-.2.29-.25.1-.05.2-.07.33-.06,0,0-.02-.04-.07-.09-.05-.05-.15-.12-.3-.18-.09-.03-.43-.07-.96.26-.08.05-.18.12-.28.22.35-.45.66-.93.92-1.43l.07-.03c0,.06.04.1.11.12.08.02.19,0,.35-.07.09-.05.33-.06.72-.74.07-.14.14-.24.22-.32.08-.08.18-.12.31-.14,0,0-.03-.03-.09-.07s-.17-.08-.34-.1c-.09-.01-.43.04-.86.49-.06.06-.15.16-.22.28.23-.52.41-1.06.54-1.61l.06-.05c.02.06.06.09.14.09.08,0,.18-.05.33-.15.08-.07.3-.14.52-.9.03-.15.07-.27.14-.36.06-.09.14-.16.27-.21,0,0-.03-.03-.11-.05-.07-.02-.19-.04-.35-.01-.04,0-.15.04-.28.14-.13.1-.29.27-.44.55-.05.08-.1.19-.14.32.09-.56.14-1.13.13-1.7l.04-.06c.03.05.08.07.16.05.07-.02.17-.09.28-.23.03-.04.09-.1.15-.24.06-.14.12-.37.13-.76,0-.15,0-.28.04-.38.04-.11.1-.19.21-.27,0,0-.04-.02-.12-.02-.08,0-.19.01-.34.07-.04.02-.13.08-.23.21-.05.07-.1.15-.15.25-.05.11-.09.23-.14.38-.03.09-.05.21-.06.35-.05-.57-.15-1.13-.3-1.67l.03-.07s.1.05.17.01c.07-.04.14-.13.21-.29.02-.05.06-.12.09-.27,0-.04.01-.08.01-.13,0-.05,0-.1,0-.17,0-.06-.01-.13-.02-.21,0-.04-.01-.08-.02-.12,0-.04-.02-.09-.03-.14-.04-.15-.06-.27-.05-.38,0-.11.05-.21.13-.31,0,0-.04,0-.12,0-.07.02-.18.06-.31.16-.08.05-.29.32-.3.95,0,.09,0,.22.03.35-.19-.54-.42-1.06-.7-1.55,0-.03,0-.05,0-.08.11.06.23-.02.3-.36.01-.11.12-.31-.23-1.01-.15-.27-.21-.46-.09-.69,0,0-.04,0-.11.04s-.16.1-.27.23c-.03.04-.08.13-.11.29-.01.08-.02.18,0,.29,0,.12.02.25.06.4.02.09.06.21.12.34-.31-.47-.67-.92-1.06-1.33v-.07c.11.03.21-.07.19-.43,0-.05,0-.14-.05-.28-.06-.14-.16-.35-.43-.64-.1-.11-.18-.21-.23-.31-.05-.1-.06-.21-.03-.34,0,0-.04.01-.1.06-.06.05-.13.14-.2.29-.02.04-.05.15-.03.31,0,.08.03.18.06.29.04.11.08.24.16.38.02.04.05.09.08.14.03.05.07.11.11.16-.42-.38-.87-.73-1.36-1.03l-.03-.07c.12,0,.19-.13.09-.47-.02-.05-.03-.13-.12-.26-.04-.06-.1-.14-.2-.22-.09-.09-.21-.18-.38-.29-.06-.04-.12-.08-.17-.12-.05-.04-.09-.08-.13-.12-.07-.09-.11-.19-.11-.32,0,0-.04.02-.08.09-.04.06-.09.17-.12.33,0,.04,0,.16.05.31.06.16.17.35.38.59.06.07.15.15.26.24-.5-.27-1.03-.49-1.57-.66l-.05-.06c.12-.03.16-.17-.03-.47-.03-.05-.06-.12-.18-.22-.06-.05-.14-.11-.24-.17-.11-.06-.25-.12-.44-.19-.14-.05-.26-.09-.35-.16-.09-.07-.15-.16-.19-.28,0,0-.03.03-.06.1-.03.07-.05.18-.04.35,0,.05.03.15.12.29.09.14.25.3.51.48.09.06.22.13.37.19.08.03.15.05.24.07.08.01.16.03.25.03,0,0,.01,0,.02,0l.04.05-.11-.04-.03.11.1.03-.04.02s0,0-.01-.01c-.07-.05-.14-.09-.22-.11-.08-.03-.16-.04-.24-.05-.16-.02-.31,0-.41.01-.3.06-.49.18-.6.29-.12.11-.16.2-.17.25-.05.16-.05.27-.05.35,0,.08.02.11.02.11.05-.11.12-.18.21-.22.09-.04.19-.06.32-.05.16,0,.29,0,.4-.02.11,0,.19-.02.25-.04.13-.04.19-.08.24-.11.29-.16.35-.29.27-.38l.06-.02c.52.16,1.03.37,1.52.63-.11-.04-.22-.05-.29-.05-.31-.02-.52.06-.65.13-.14.07-.2.16-.23.2-.08.14-.12.25-.13.33-.01.07-.01.11-.01.11.08-.1.16-.15.26-.16.05,0,.1-.01.15,0,.05,0,.11.02.17.04.16.04.29.06.39.08.11.02.19.02.26.02.14,0,.21-.03.26-.04.32-.08.41-.19.36-.3h.06c.47.28.91.61,1.31.98-.1-.06-.2-.1-.27-.12-.15-.04-.27-.07-.39-.07-.11,0-.2.01-.28.03-.15.04-.24.1-.27.13-.11.11-.18.21-.21.28s-.04.11-.04.11c.1-.07.2-.1.29-.1.1,0,.19.04.3.11.29.15.47.23.6.26.13.03.21.02.26.02.33,0,.45-.09.42-.2h.06c.38.4.72.83,1.03,1.29-.08-.08-.16-.15-.23-.19-.13-.08-.25-.13-.36-.16-.11-.03-.2-.04-.28-.04-.16,0-.26.04-.3.06-.14.08-.22.16-.27.22-.05.06-.06.1-.06.1.23-.09.4-.02.57.16.47.45.67.46.76.49.32.08.46.03.46-.09l.06.02c.27.48.5.98.68,1.49-.06-.1-.12-.18-.18-.24-.44-.43-.79-.38-.87-.36-.16.05-.26.1-.32.15-.06.04-.08.08-.08.08.13-.02.22,0,.31.05.08.05.14.13.21.24.34.55.53.61.62.66.15.08.26.11.33.11.08,0,.12-.03.14-.09l.05.04c.15.53.24,1.07.29,1.62-.03-.11-.08-.21-.11-.27-.08-.13-.16-.23-.24-.31-.08-.08-.15-.13-.22-.17-.14-.08-.25-.09-.29-.09-.16,0-.27.04-.34.07-.07.03-.1.05-.1.05.12.02.22.06.28.13.07.07.11.16.15.28.1.31.19.49.26.6.07.11.14.16.17.19.13.11.22.17.29.19.07.02.13,0,.16-.06l.04.05c.01.55-.03,1.1-.12,1.64,0-.12-.02-.22-.04-.29-.09-.3-.22-.47-.33-.58-.12-.11-.22-.14-.26-.15-.16-.03-.27-.03-.35-.02-.08,0-.11.03-.11.03.12.05.2.11.24.19.05.08.06.19.07.31.04.65.17.79.23.88.09.14.17.22.24.26.07.04.12.03.17-.01l.02.06c-.12.53-.3,1.06-.52,1.56.02-.11.03-.22.03-.29-.03-.62-.32-.82-.39-.86-.15-.07-.26-.1-.33-.11-.08,0-.11,0-.11,0,.1.07.16.15.19.25.02.09.02.2,0,.32-.12.64-.03.81,0,.91.06.16.11.26.17.31.06.05.11.06.16.03v.06c-.24.49-.54.95-.88,1.38.05-.1.09-.2.1-.28.12-.6-.1-.87-.17-.93-.12-.11-.23-.16-.3-.19-.07-.03-.11-.03-.11-.03.08.1.12.19.12.28,0,.09-.03.19-.09.31-.14.29-.19.49-.22.62-.02.13,0,.21,0,.26.02.17.04.27.08.34.04.06.09.08.15.07v.06c-.37.41-.77.79-1.2,1.12.07-.09.13-.18.17-.25.07-.13.11-.26.13-.37.02-.11.03-.2.02-.28-.01-.16-.06-.25-.09-.29-.09-.13-.18-.21-.24-.25-.06-.04-.1-.06-.1-.06.11.23.05.39-.11.58-.1.12-.18.23-.24.32-.06.09-.1.16-.13.22-.05.12-.05.2-.07.25-.06.32,0,.45.13.45l-.02.06c-.45.31-.94.57-1.44.79.1-.06.17-.14.22-.2.1-.12.17-.22.22-.33.05-.1.07-.19.09-.27.03-.15,0-.26-.01-.3-.06-.15-.12-.25-.17-.31-.05-.06-.08-.08-.08-.08.05.24-.05.39-.25.54-.13.09-.23.18-.31.25s-.14.13-.18.19c-.08.11-.1.18-.13.23-.14.3-.11.44.01.47l-.03.05c-.17.07-.34.11-.51.17-.17.05-.35.09-.52.14-.35.08-.71.14-1.07.18-.45.05-.9.06-1.35.05-.04,0-.37-.02-.57-.04-.08,0-.24.01-.24.01-.8.06-1.97.4-2.54,1.78ZM19.64,5.78l.1.06h-.05s0,0,0-.01c-.02-.02-.03-.04-.05-.05ZM19.81,5.76l-.15-.09s.07.02.11.03c0,0,.01,0,.02,0l.02.06ZM21.46,7.2l.09.09h-.05s0-.02,0-.02c-.01-.02-.02-.04-.03-.06ZM21.63,7.22l-.13-.13s.07.04.1.06c0,0,.01,0,.02,0v.06ZM22.93,9.14l-.04-.02s0-.01,0-.02c0-.02-.01-.05-.02-.07l.06.11ZM23.04,9.03v.06s-.1-.15-.1-.15c.03.03.05.06.08.08,0,0,0,0,.01,0ZM23.82,11.27l-.04-.03s0-.01,0-.02c0-.02,0-.05,0-.07.01.04.02.08.03.12ZM23.93,11.25c-.01-.06-.03-.11-.05-.17.02.03.04.07.06.1,0,0,0,0,.01.01l-.02.06ZM24.15,13.55l-.03-.04s0-.01,0-.02c0-.02.01-.05.02-.07,0,.04,0,.08,0,.12ZM24.26,13.38s.02.07.03.11c0,0,0,0,0,.02l-.04.05c0-.06,0-.12,0-.18ZM24.02,15.88c.01-.06.02-.12.04-.17,0,.04,0,.08,0,.12,0,0,0,.01,0,.02-.01.01-.03.03-.05.04ZM23.91,15.85s-.01-.03-.02-.04c0,0,0,0,.01-.01.01-.02.02-.04.03-.06,0,.04-.02.08-.03.12ZM23.21,18.07c.03-.05.05-.11.08-.16,0,.04-.02.08-.02.11,0,0,0,.01,0,.02l-.06.03ZM23.11,17.97s0,0,.01-.01c.02-.02.03-.04.05-.05-.02.04-.03.07-.05.11,0-.02,0-.03,0-.05ZM21.88,19.99s.08-.09.12-.13c-.02.03-.04.07-.05.1,0,0,0,.01,0,.02h-.06ZM21.81,19.91v-.05s.02,0,.02,0c.02-.01.04-.02.06-.04-.03.03-.05.06-.08.09ZM20.12,21.53l.15-.1s-.05.06-.08.09c0,0,0,0,0,.02h-.06ZM20.07,21.43l.02-.04s.01,0,.02,0c.02,0,.05-.01.07-.02l-.1.07ZM18.04,22.58l.17-.06s-.07.04-.09.07c0,0,0,0-.01.01l-.06-.02ZM18.01,22.48l.03-.04s.01,0,.02,0c.02,0,.05,0,.07,0l-.12.04Z"/>
          </g>
          <g>
            <path class="cls-3" d="M16.82,24.8l-.02-.06c-.56-1.36-1.68-1.73-2.52-1.81,0,0-.13-.02-.22-.02-.02,0-.03,0-.04,0-.04,0-.07,0-.1,0-.3,0-.51.03-.54.04-.09,0-.17,0-.26,0-.34,0-.67-.02-1-.05-.39-.04-.77-.11-1.06-.18-.05-.01-.1-.03-.16-.04-.12-.03-.24-.06-.36-.1-.05-.02-.1-.03-.15-.05-.1-.03-.2-.06-.3-.1.01-.01.02-.03.03-.05.05-.1.02-.25-.07-.46,0-.01-.01-.02-.02-.04-.02-.04-.05-.11-.11-.2-.05-.06-.11-.13-.19-.2l-.02-.02c-.08-.07-.17-.15-.3-.24-.21-.15-.27-.27-.23-.47l.03-.14-.12.07s-.04.03-.1.09c-.07.08-.13.19-.18.32-.01.03-.05.15-.01.34.02.09.05.19.09.28.04.09.1.18.17.27-.35-.18-.7-.37-1.03-.59.02-.01.03-.02.05-.04.07-.08.08-.23.04-.46,0-.01,0-.02,0-.04,0-.05-.02-.13-.06-.23-.03-.07-.07-.14-.13-.23-.06-.1-.14-.21-.24-.33-.15-.18-.2-.31-.1-.52l.06-.13-.14.04s-.05.02-.12.07c-.09.06-.18.16-.26.27-.02.03-.08.14-.1.32,0,.09,0,.19.02.3.02.11.06.21.1.31-.3-.25-.58-.53-.85-.83.04-.01.08-.04.11-.09.05-.07.07-.18.09-.37,0-.01,0-.03,0-.04,0-.05.01-.13,0-.24-.03-.18-.11-.39-.22-.64-.06-.12-.08-.2-.08-.28,0-.08.04-.16.11-.24l.09-.11h-.14s-.05.01-.13.04c-.1.04-.21.11-.31.2-.08.07-.3.33-.2.9-.23-.33-.44-.67-.62-1.01.05,0,.09-.02.13-.06.06-.06.12-.17.18-.33v-.02c.05-.11.12-.31,0-.91-.03-.13-.03-.22,0-.29.02-.08.08-.15.16-.21l.12-.08-.14-.03s-.02,0-.06,0c-.02,0-.05,0-.08,0-.11.01-.23.05-.35.11-.09.05-.37.24-.42.82-.15-.38-.26-.76-.35-1.13.01,0,.02,0,.04,0,.04,0,.07-.01.11-.03.08-.04.16-.14.26-.28v-.02c.08-.1.2-.28.24-.89,0-.13.03-.22.06-.29.04-.07.11-.12.21-.16l.13-.05-.13-.06s-.05-.02-.13-.03c-.03,0-.07,0-.11,0-.08,0-.17,0-.26.03-.03,0-.15.04-.29.17-.13.12-.24.3-.32.53-.05-.4-.07-.8-.06-1.18.02.01.05.02.08.02.02,0,.04,0,.06,0,.08-.02.18-.09.32-.21,0,0,.02-.02.03-.03.04-.03.09-.08.16-.18.1-.16.19-.36.27-.62.04-.12.08-.2.13-.26.05-.06.13-.09.24-.11l.14-.02-.11-.09s-.04-.03-.12-.06c-.1-.04-.23-.06-.37-.07h0s-.16,0-.32.09c-.08.04-.15.1-.24.18-.08.08-.15.16-.2.25.05-.39.13-.78.23-1.16.04.03.08.05.14.05.09,0,.2-.04.36-.12h.02c.1-.06.3-.16.62-.68.07-.11.13-.18.19-.22.06-.03.12-.05.19-.05.02,0,.05,0,.07,0l.14.02-.08-.12s-.03-.04-.1-.09c-.09-.06-.2-.12-.34-.16-.03,0-.08-.02-.14-.02-.17,0-.43.06-.73.33.15-.37.32-.72.51-1.07.03.05.1.09.23.09.07,0,.17-.01.27-.04,0,0,.02,0,.03,0,.11-.03.32-.08.77-.5.12-.12.22-.18.34-.18.05,0,.11.01.17.04l.14.05-.05-.13s-.02-.05-.07-.11c-.07-.08-.17-.16-.29-.24-.03-.02-.14-.07-.33-.07-.1,0-.2.02-.3.04-.1.03-.19.07-.29.12.23-.32.49-.62.76-.91,0,.02.02.03.03.05.07.08.21.12.44.12h.06s.12,0,.21-.02c.14-.03.32-.11.62-.27.1-.06.19-.1.27-.1,0,0,.01,0,.02,0,.08,0,.15.03.23.09l.12.08-.02-.14s0-.05-.04-.13c-.05-.1-.12-.2-.22-.3-.02-.02-.12-.1-.3-.15-.08-.02-.18-.03-.28-.03h-.02c-.09,0-.2.02-.32.05.31-.25.63-.48.96-.69,0,.02,0,.04.02.05.05.1.18.17.4.23.01,0,.03,0,.04,0,.05.01.12.03.23.04h.03c.07,0,.16,0,.24-.02h.05c.09-.03.21-.05.35-.09.06-.02.11-.03.16-.03.02,0,.04,0,.05,0,.03,0,.06,0,.08,0,.08.02.15.06.22.14l.09.11.02-.15s0-.05-.01-.13c-.02-.11-.07-.22-.14-.34-.02-.04-.09-.13-.25-.22-.17-.09-.38-.14-.6-.14.36-.17.73-.31,1.1-.43,0,.02,0,.04,0,.06.02.11.13.21.33.32.01,0,.02.01.04.02.04.02.11.06.21.09.08.02.17.04.27.04h.04c.08,0,.18.02.3.02.02,0,.05,0,.07,0,.02,0,.04,0,.06,0,.09,0,.17.02.23.05.08.04.13.1.18.19l.06.13.05-.14s.02-.05.02-.13c0-.11-.01-.24-.05-.37-.01-.03-.05-.15-.19-.27-.17-.15-.38-.25-.63-.3-.06-.01-.15-.03-.25-.03-.02,0-.03,0-.05,0,.11-.05.2-.1.27-.14.25-.17.42-.34.53-.5.09-.13.13-.25.13-.32.01-.18-.02-.3-.04-.37-.03-.08-.06-.12-.07-.12l-.08-.08-.03.11c-.03.11-.08.19-.16.25-.08.06-.18.1-.32.15h-.01c-.16.06-.32.13-.45.2-.1.06-.19.12-.25.18-.1.09-.14.16-.17.21,0,0-.01.02-.02.03-.12.2-.16.35-.12.46,0,.02.02.05.04.06-.39.13-.78.28-1.16.46.17-.21.29-.4.35-.56.05-.15.06-.28.05-.34-.03-.18-.09-.29-.13-.35-.05-.07-.09-.1-.1-.1l-.09-.06v.11c0,.11-.04.2-.1.28-.03.04-.07.08-.12.11-.05.04-.1.07-.17.12-.16.11-.29.21-.39.3-.08.08-.15.16-.2.23-.08.11-.1.19-.12.24,0,.01,0,.02,0,.03-.07.23-.07.38,0,.47.02.02.04.04.06.05-.35.22-.69.46-1.01.73.06-.12.1-.24.13-.33.03-.1.06-.21.07-.3.02-.16,0-.28-.04-.35-.08-.17-.16-.26-.22-.31-.06-.06-.11-.07-.12-.08l-.11-.03.02.11c.03.11.02.2-.02.3-.04.09-.11.17-.22.29-.28.3-.38.52-.44.66-.04.12-.05.2-.05.26,0,.01,0,.03,0,.04-.01.22.02.37.09.44.02.03.05.04.09.05-.28.3-.55.62-.79.96.03-.12.04-.24.05-.35,0-.12,0-.22-.01-.31-.02-.16-.08-.27-.12-.32-.12-.14-.22-.21-.29-.25-.08-.04-.13-.04-.14-.04h-.11s.05.09.05.09c.1.2.05.37-.09.63-.32.63-.27.87-.25,1.01,0,.01,0,.03,0,.04.07.36.2.44.29.44-.2.36-.38.73-.54,1.12-.02-.57-.21-.85-.32-.93-.15-.11-.26-.15-.34-.17-.04,0-.07-.01-.1-.01-.03,0-.04,0-.04,0l-.11.02.07.08c.07.08.11.17.12.27,0,.1,0,.21-.05.36-.01.05-.02.1-.03.14,0,.05-.01.09-.02.13-.01.08-.02.15-.02.22,0,.06,0,.12,0,.17,0,.05,0,.09.01.14.02.13.06.2.08.25,0,.01.01.02.01.03.07.16.15.27.24.32.04.02.08.04.11.04.01,0,.03,0,.04,0-.11.4-.19.81-.24,1.22-.04-.11-.07-.23-.12-.33-.04-.09-.09-.17-.16-.26-.1-.13-.2-.2-.26-.23-.13-.05-.25-.08-.35-.08h-.02c-.09,0-.14.02-.14.03l-.1.05.09.06c.09.06.15.13.18.24.03.09.04.2.04.36,0,.35.05.61.13.79.05.12.1.18.14.22,0,0,.02.02.02.03.13.17.24.23.31.25.03,0,.05.01.07.01.03,0,.06,0,.09-.02,0,.41.02.83.07,1.24-.12-.21-.27-.38-.42-.5-.12-.1-.24-.15-.31-.16-.06,0-.11-.01-.16-.01-.08,0-.15,0-.21.03-.08.02-.13.06-.13.06l-.09.07.1.04c.1.04.18.09.23.18.05.08.09.18.13.34.19.68.39.83.5.91.01,0,.02.02.03.02.14.11.27.16.36.17,0,0,0,0,.01,0,.05,0,.1-.02.14-.05.09.39.22.79.37,1.19-.44-.44-.77-.47-.84-.47-.01,0-.02,0-.03,0-.18.02-.3.07-.36.11-.08.04-.11.08-.11.09l-.07.09h.11c.11.02.2.06.27.13.07.07.14.16.21.3.35.61.59.7.71.75.01,0,.03.01.04.02.13.05.24.08.32.08.03,0,.05,0,.07,0,.06-.01.11-.04.13-.08.19.36.41.72.65,1.06-.38-.22-.65-.26-.78-.26-.09,0-.15.02-.17.03-.17.06-.27.14-.32.19-.06.06-.08.11-.09.11l-.04.1.11-.02s.06,0,.08,0c.07,0,.14.02.21.05.08.04.17.12.28.24.13.14.26.24.36.33.11.09.21.13.27.16.12.05.2.06.25.07.01,0,.02,0,.03,0,.06,0,.12.01.17.01.09,0,.17-.01.23-.04.06-.03.09-.07.11-.11.28.31.58.6.89.86-.12-.03-.23-.06-.34-.07-.07,0-.14-.01-.2-.01-.04,0-.07,0-.11,0-.2.01-.3.08-.33.09-.15.11-.23.2-.27.27-.05.07-.05.13-.06.13l-.02.11.1-.04c.07-.03.13-.04.19-.04.12,0,.25.05.43.18.16.09.3.17.43.23.1.04.2.07.3.09.06,0,.11.01.15.01.04,0,.08,0,.11,0,.01,0,.02,0,.03,0,.24-.03.38-.1.44-.19.01-.02.02-.05.02-.07.34.23.71.44,1.08.62-.02,0-.03,0-.05,0-.1,0-.19,0-.3.01-.11.01-.21.03-.3.07-.19.07-.28.15-.3.17-.12.14-.17.25-.19.32-.03.08-.02.14-.02.14v.11s.1-.07.1-.07c.09-.07.18-.1.28-.1.09,0,.2.02.35.08.22.07.36.1.48.11.08,0,.16.02.23.02.03,0,.06,0,.08,0,.13,0,.21-.04.26-.06.01,0,.02,0,.03-.01.22-.09.34-.18.37-.29,0-.03,0-.05,0-.08.1.04.21.07.32.1.06.02.11.03.17.05.14.04.28.08.42.11l.11.03c.3.06.69.14,1.09.18.24.03.52.04.85.04.29,0,.59-.01.84-.02.08,0,.16,0,.24,0,.7.02,1.97.27,2.56,1.68l.02.06.22-.09Z"/>
            <path class="cls-83" d="M2.54,14.33c.12.04.2.11.27.21.06.09.1.21.14.36.21.75.44.83.52.9.14.1.25.15.33.15.08,0,.12-.03.14-.09l.06.05c.13.55.31,1.09.54,1.61-.07-.12-.15-.21-.22-.28-.43-.45-.77-.5-.86-.49-.16.02-.27.06-.34.1s-.09.07-.09.07c.13.01.23.06.31.14.08.08.15.18.22.32.39.68.63.7.72.74.16.07.28.08.35.07.08-.02.11-.06.11-.12l.07.03c.26.5.57.98.92,1.43-.1-.1-.2-.17-.28-.22-.53-.33-.87-.3-.96-.26-.15.06-.25.13-.3.18-.06.05-.07.09-.07.09.13-.02.23,0,.33.06.1.05.19.14.29.25.13.14.26.24.36.32.1.08.19.12.26.15.14.06.22.06.27.07.17.03.29,0,.36-.02.07-.03.09-.09.08-.14l.07.02c.38.42.8.81,1.24,1.16-.12-.07-.24-.12-.32-.14-.15-.04-.28-.07-.4-.09-.12-.02-.21-.02-.3,0-.16.01-.26.06-.3.08-.13.09-.21.18-.25.25-.04.07-.05.11-.05.11.24-.1.43-.03.68.14.17.1.31.17.42.22.12.05.21.07.29.08.15.03.23,0,.28,0,.35-.05.44-.16.39-.27h.08c.47.31.97.59,1.49.81-.14-.03-.26-.05-.35-.06-.16,0-.29,0-.41.01-.12.01-.21.04-.29.06-.16.05-.24.12-.27.16-.11.12-.16.23-.18.3-.02.07-.02.12-.02.12.21-.16.41-.13.7-.03.19.06.34.1.46.11.13.02.22.02.3.01.15,0,.22-.05.27-.07.33-.13.38-.26.31-.36l.07-.02c.17.07.35.11.52.17.17.05.35.09.53.14.36.08.71.14,1.08.18.64.07,1.36.03,1.92.01.76.02,2.03.29,2.62,1.72l.1-.04c-.55-1.34-1.67-1.7-2.47-1.77,0,0-.17-.02-.25-.02-.38,0-.63.04-.64.04h0c-.42.01-.85,0-1.27-.05-.36-.04-.71-.1-1.07-.18-.17-.05-.35-.09-.52-.14-.17-.06-.35-.1-.51-.17l-.03-.05c.12-.03.15-.17.01-.47-.02-.04-.04-.12-.13-.23-.04-.05-.1-.12-.18-.19-.08-.07-.18-.16-.31-.25-.2-.15-.3-.29-.25-.54,0,0-.03.02-.08.08-.05.06-.11.15-.17.31-.02.04-.04.15-.01.3.01.08.04.17.09.27.05.1.12.21.22.33.05.06.13.13.22.2-.5-.22-.98-.49-1.44-.79l-.02-.06c.12,0,.19-.13.13-.45-.01-.05-.01-.13-.07-.25-.03-.06-.07-.14-.13-.22-.06-.09-.13-.2-.24-.32-.16-.2-.23-.35-.11-.58,0,0-.04.01-.1.06-.06.04-.15.12-.24.25-.03.04-.07.13-.09.29,0,.08,0,.17.02.28.02.11.06.24.13.37.04.07.09.16.17.25-.43-.34-.83-.71-1.2-1.12v-.06c.05.02.11,0,.15-.07.04-.07.07-.17.08-.34,0-.05.02-.13,0-.26-.02-.13-.08-.33-.22-.62-.05-.11-.09-.21-.09-.31,0-.1.04-.19.12-.28,0,0-.04,0-.11.03-.07.03-.17.08-.3.19-.07.06-.29.33-.17.93.02.07.05.17.1.28-.34-.43-.63-.89-.89-1.38v-.06c.06.03.12.03.17-.03.05-.05.11-.15.17-.31.03-.1.13-.27,0-.91-.02-.12-.03-.23,0-.32.03-.09.09-.17.19-.25,0,0-.04,0-.11,0-.08,0-.19.04-.33.11-.08.04-.36.24-.39.86,0,.08,0,.18.03.29-.22-.5-.39-1.02-.52-1.56l.02-.06s.1.05.17.01c.07-.04.14-.12.24-.26.06-.09.19-.23.23-.88,0-.13.03-.23.07-.31.05-.08.13-.15.24-.19,0,0-.04-.02-.11-.03-.08,0-.19-.01-.35.02-.04.01-.14.05-.26.15-.12.11-.24.29-.33.58-.02.07-.04.18-.04.29-.09-.54-.13-1.09-.12-1.64l.04-.05c.03.05.08.07.16.06.07-.02.17-.08.29-.19.04-.04.1-.08.17-.19.07-.11.16-.29.26-.6.04-.12.08-.21.15-.28.06-.07.16-.11.28-.13,0,0-.03-.03-.1-.05-.07-.03-.18-.06-.34-.07-.05,0-.15.01-.29.09-.07.04-.14.09-.22.17-.08.08-.16.18-.24.31-.04.07-.08.16-.11.27.05-.55.14-1.09.29-1.62l.05-.04c.02.06.06.09.14.09.08,0,.18-.04.33-.11.09-.05.28-.11.62-.66.07-.11.13-.19.21-.24.08-.05.18-.07.31-.05,0,0-.02-.03-.08-.08-.06-.04-.16-.1-.32-.15-.09-.02-.43-.07-.87.36-.05.06-.12.14-.18.24.18-.52.41-1.02.68-1.49l.06-.02c0,.12.14.18.46.09.1-.03.3-.04.76-.49.18-.18.34-.25.57-.16,0,0-.01-.04-.06-.1-.05-.06-.13-.14-.27-.22-.04-.02-.14-.06-.3-.06-.08,0-.17,0-.28.04-.11.03-.22.08-.36.16-.07.04-.15.11-.23.19.3-.46.65-.88,1.03-1.28h.06c-.03.11.09.2.42.19.05,0,.12,0,.26-.02.14-.03.32-.11.6-.26.11-.07.21-.1.3-.11.1,0,.19.02.29.1,0,0,0-.04-.04-.11-.03-.07-.09-.17-.21-.28-.03-.03-.12-.09-.27-.13-.08-.02-.17-.03-.28-.03-.11,0-.24.02-.39.07-.07.02-.17.06-.27.12.41-.37.85-.7,1.31-.99h.06c-.05.11.04.23.36.31.05,0,.12.04.26.04.07,0,.15,0,.26-.02.1-.02.24-.04.39-.08.06-.02.12-.03.17-.04.05,0,.1,0,.15,0,.09.02.18.07.26.16,0,0,0-.04-.01-.11-.02-.07-.05-.18-.13-.33-.02-.04-.09-.12-.23-.2-.14-.07-.35-.14-.65-.13-.08,0-.18.02-.29.05.49-.25.99-.46,1.52-.63l.06.02c-.08.09-.02.22.27.38.04.02.11.07.24.11.07.02.15.03.25.04.11,0,.24.02.4.02.12,0,.23.01.32.05.09.04.15.11.21.22,0,0,.01-.04.02-.11,0-.08,0-.19-.05-.35-.01-.04-.06-.14-.17-.25-.12-.1-.3-.23-.6-.29-.1-.02-.25-.04-.41-.01-.08.01-.16.03-.24.05-.08.02-.15.07-.22.11,0,0,0,0-.01.01l-.04-.02.1-.03-.03-.11-.11.04.04-.05s.01,0,.02,0c.08,0,.16-.01.25-.03.08-.02.16-.04.24-.07.15-.06.28-.13.37-.19.26-.18.42-.34.51-.48.09-.14.12-.24.12-.29,0-.16-.01-.28-.04-.35-.03-.07-.06-.1-.06-.1-.04.13-.1.22-.19.28-.09.07-.21.11-.35.16-.18.07-.33.13-.44.19-.11.06-.19.12-.24.17-.11.1-.15.17-.18.22-.18.3-.14.44-.03.47l-.05.06c-.54.17-1.07.39-1.57.66.11-.09.2-.17.26-.24.21-.24.32-.43.38-.59.06-.16.06-.27.05-.31-.03-.16-.08-.26-.12-.33-.04-.06-.08-.09-.08-.09,0,.13-.04.23-.11.32-.03.04-.08.08-.13.12-.05.04-.11.08-.17.12-.16.11-.29.2-.38.29-.09.09-.15.16-.2.22-.09.12-.1.2-.12.26-.1.34-.03.46.09.47l-.03.07c-.48.3-.94.64-1.36,1.03.04-.05.08-.11.11-.16.03-.05.06-.1.08-.14.07-.14.12-.27.16-.38.04-.11.05-.21.06-.29.02-.16-.01-.27-.03-.31-.07-.15-.14-.24-.2-.29-.06-.05-.1-.06-.1-.06.03.13.02.24-.03.34-.05.1-.13.2-.23.31-.26.29-.37.5-.43.64-.05.14-.04.23-.05.28-.02.35.08.46.2.43v.07c-.4.41-.76.85-1.07,1.33.06-.12.09-.25.12-.34.04-.15.05-.29.06-.4,0-.12,0-.21,0-.29-.02-.16-.08-.26-.11-.29-.1-.13-.2-.19-.27-.23-.07-.03-.11-.04-.11-.04.12.23.05.42-.09.69-.36.7-.24.9-.23,1.01.07.35.19.42.3.36,0,.03,0,.05,0,.08-.28.49-.51,1.01-.7,1.55.03-.14.03-.26.03-.35-.01-.63-.22-.89-.3-.95-.13-.1-.24-.14-.31-.16-.07-.02-.12,0-.12,0,.09.1.13.2.13.31,0,.11-.01.24-.05.38-.01.05-.02.09-.03.14,0,.04-.01.08-.02.12-.01.08-.02.15-.02.21,0,.06,0,.12,0,.17,0,.05,0,.09.01.13.02.15.07.22.09.27.07.16.15.25.21.29.07.04.12.03.17-.01l.03.07c-.15.55-.25,1.11-.3,1.67,0-.14-.03-.26-.06-.35-.05-.15-.09-.28-.14-.38-.05-.11-.11-.19-.15-.25-.1-.13-.19-.19-.23-.21-.15-.06-.27-.08-.34-.07-.08,0-.12.02-.12.02.11.07.17.16.21.27.04.11.05.23.04.38.01.39.06.62.13.76.06.14.12.19.15.24.11.14.21.2.28.23.07.02.13,0,.16-.05l.04.06c-.01.57.03,1.14.13,1.7-.04-.13-.1-.25-.14-.32-.15-.27-.31-.44-.44-.55-.13-.1-.23-.14-.28-.14-.16-.02-.28,0-.35.01-.07.02-.11.05-.11.05ZM3.73,13.38c0,.06,0,.12,0,.18l-.04-.05s0-.01,0-.02c.01-.04.03-.07.03-.11ZM8.25,5.84l.1-.06s-.03.03-.05.05c0,0,0,0,0,.01h-.05ZM8.18,5.76l.02-.06s.01,0,.02,0c.04,0,.07-.02.11-.03l-.15.09ZM6.45,7.29l.09-.09s-.02.04-.03.06c0,0,0,.01,0,.02h-.05ZM6.36,7.22v-.06s.02,0,.03,0c.03-.02.07-.04.1-.06l-.13.13ZM5.06,9.14l.06-.11s-.01.05-.02.07c0,0,0,.01,0,.02l-.04.02ZM4.95,9.03s.01,0,.01,0c.03-.02.06-.05.08-.08l-.09.15v-.06ZM4.17,11.27s.02-.08.03-.12c0,.02,0,.05,0,.07,0,0,0,.01,0,.02l-.04.03ZM4.06,11.25l-.02-.06s0,0,.01-.01c.02-.03.04-.06.06-.1-.02.06-.04.11-.05.17ZM3.84,13.55s0-.08,0-.12c0,.02,0,.05.02.07,0,0,0,0,0,.02l-.03.04ZM9.86,22.43s.05,0,.07,0c0,0,.01,0,.02,0l.03.04-.12-.04ZM9.79,22.52l.17.06-.06.02s0,0-.01-.01c-.03-.02-.06-.05-.09-.07ZM7.82,21.36s.05.02.07.02c0,0,.01,0,.02,0l.02.04-.1-.07ZM7.72,21.43l.15.1h-.06s0,0,0-.01c-.02-.03-.05-.06-.08-.09ZM6.1,19.82s.04.03.06.04c0,0,.01,0,.02,0v.05s-.05-.06-.08-.09ZM5.99,19.86s.08.09.12.13h-.06s0-.02,0-.03c-.02-.03-.03-.07-.05-.1ZM4.82,17.9s.03.04.05.05c0,0,0,0,.01.01,0,.02,0,.03,0,.05-.02-.04-.04-.07-.05-.11ZM4.7,17.91c.03.05.05.11.08.16l-.06-.03s0-.01,0-.02c0-.04-.01-.08-.02-.11ZM4.05,15.73s.02.04.03.06c0,0,0,0,.01.01,0,.01-.01.03-.02.04-.01-.04-.02-.08-.03-.12ZM3.92,15.84s0-.01,0-.02c0-.04,0-.08,0-.12.01.06.02.12.04.17-.02-.01-.03-.03-.05-.04Z"/>
          </g>
          <g>
            <polygon class="cls-2" points="14.31 13.75 14.31 13.75 14.31 13.75 14.31 13.75"/>
            <rect class="cls-114" x="14.33" y="13.75" width="0" height="0" transform="translate(-1.31 25.99) rotate(-81.87)"/>
            <polygon class="cls-89" points="14.32 13.75 14.32 13.75 14.32 13.75 14.33 13.75 14.32 13.76 14.32 13.76 14.32 13.76 14.32 13.75 14.32 13.75 14.32 13.75"/>
            <polygon class="cls-121" points="14.33 13.76 14.33 13.76 14.33 13.75 14.33 13.76"/>
            <polygon class="cls-95" points="14.31 13.76 14.31 13.76 14.31 13.76 14.31 13.76"/>
            <polygon class="cls-86" points="14.33 13.76 14.32 13.76 14.33 13.76 14.33 13.76"/>
            <polygon class="cls-102" points="14.32 13.76 14.32 13.76 14.32 13.76 14.32 13.76"/>
            <polygon class="cls-66" points="14.31 13.75 14.31 13.75 14.31 13.75 14.31 13.75"/>
            <polygon class="cls-117" points="14.32 13.74 14.32 13.74 14.32 13.74 14.32 13.74"/>
            <polygon class="cls-67" points="14.32 13.74 14.32 13.74 14.32 13.74 14.32 13.74"/>
            <polygon class="cls-26" points="14.33 13.75 14.33 13.75 14.33 13.75 14.33 13.75"/>
            <rect class="cls-46" x="14.33" y="13.76" width="0" height="0"/>
            <polygon class="cls-35" points="14.33 13.77 14.33 13.77 14.33 13.77 14.33 13.77"/>
            <polygon class="cls-5" points="14.33 13.75 14.33 13.75 14.32 13.75 14.33 13.75"/>
            <polygon class="cls-85" points="14.32 13.74 14.32 13.74 14.33 13.74 14.33 13.75 14.32 13.75 14.32 13.74"/>
            <rect class="cls-52" x="14.32" y="13.74" width="0" height="0" transform="translate(-5.25 10.41) rotate(-34.14)"/>
            <rect class="cls-118" x="14.33" y="13.75" width="0" height="0" transform="translate(-5.48 12.36) rotate(-39.81)"/>
            <polygon class="cls-111" points="14.33 13.75 14.33 13.75 14.33 13.75 14.33 13.75"/>
            <polygon class="cls-73" points="14.32 13.75 14.32 13.75 14.32 13.75 14.32 13.75"/>
            <polygon class="cls-62" points="14.32 13.74 14.32 13.74 14.32 13.74 14.32 13.74 14.32 13.74 14.32 13.74"/>
            <polygon class="cls-51" points="14.34 13.76 14.33 13.76 14.33 13.76 14.34 13.76"/>
            <polygon class="cls-101" points="14.32 13.74 14.32 13.75 14.32 13.75 14.32 13.74"/>
            <polygon class="cls-37" points="14.32 13.75 14.32 13.75 14.33 13.75 14.33 13.75 14.33 13.75 14.33 13.75 14.32 13.75"/>
            <polygon class="cls-64" points="14.32 13.75 14.32 13.75 14.32 13.75 14.32 13.75"/>
            <rect class="cls-40" x="14.32" y="13.74" width="0" height="0" transform="translate(-3.38 22.72) rotate(-70.71)"/>
            <rect class="cls-34" x="14.33" y="13.75" width="0" height="0"/>
            <polygon class="cls-113" points="14.31 13.75 14.31 13.75 14.31 13.74 14.32 13.74 14.31 13.75 14.31 13.75"/>
            <polygon class="cls-9" points="14.34 13.75 14.34 13.75 14.34 13.75 14.34 13.75"/>
            <rect class="cls-25" x="14.33" y="13.75" width="0" height="0" transform="translate(-5.29 10.7) rotate(-34.99)"/>
            <polygon class="cls-57" points="14.32 13.75 14.32 13.75 14.32 13.75 14.32 13.74 14.32 13.75 14.32 13.75"/>
            <polygon class="cls-103" points="14.32 13.74 14.32 13.74 14.32 13.74 14.32 13.74"/>
            <rect class="cls-10" x="14.32" y="13.75" width="0" height="0" transform="translate(-4.38 20.41) rotate(-63.43)"/>
            <polygon class="cls-45" points="14.32 13.75 14.32 13.75 14.32 13.75 14.32 13.75"/>
            <polygon class="cls-109" points="14.31 13.75 14.31 13.75 14.31 13.75 14.31 13.75 14.31 13.75 14.31 13.75"/>
            <polygon class="cls-60" points="14.33 13.74 14.33 13.74 14.33 13.74 14.33 13.74"/>
            <rect class="cls-90" x="14.32" y="13.74" width="0" height="0" transform="translate(-5.22 10.25) rotate(-33.69)"/>
            <rect class="cls-76" x="14.31" y="13.75" width="0" height="0" transform="translate(-3.23 4.46) rotate(-15.95)"/>
            <rect class="cls-42" x="14.32" y="13.74" width="0" height="0" transform="translate(-4.5 7.46) rotate(-25.35)"/>
            <rect class="cls-8" x="14.32" y="13.74" width="0" height="0" transform="translate(-3.22 23.03) rotate(-71.71)"/>
            <polygon class="cls-69" points="14.32 13.75 14.32 13.75 14.32 13.75 14.32 13.74 14.32 13.74 14.32 13.75"/>
            <polygon class="cls-39" points="14.31 13.75 14.31 13.75 14.31 13.75 14.31 13.75"/>
            <rect class="cls-24" x="14.32" y="13.74" width="0" height="0" transform="translate(-4.64 7.86) rotate(-26.57)"/>
            <polygon class="cls-78" points="14.32 13.73 14.32 13.74 14.32 13.74 14.32 13.73"/>
            <polygon class="cls-44" points="14.32 13.75 14.31 13.75 14.32 13.75 14.32 13.75"/>
            <polygon class="cls-92" points="14.31 13.76 14.31 13.76 14.31 13.76 14.31 13.75 14.31 13.76 14.31 13.76"/>
            <rect class="cls-13" x="14.32" y="13.74" width="0" height="0" transform="translate(-2.79 23.8) rotate(-74.27)"/>
            <rect class="cls-1" x="14.31" y="13.75" width="0" height="0" transform="translate(-1.43 1.66) rotate(-6.34)"/>
            <rect class="cls-84" x="14.32" y="13.74" width="0" height="0" transform="translate(-4.51 20.01) rotate(-62.24)"/>
            <rect class="cls-119" x="14.32" y="13.74" width="0" height="0" transform="translate(-4.19 6.56) rotate(-22.62)"/>
            <polygon class="cls-23" points="14.31 13.75 14.31 13.75 14.31 13.75 14.31 13.75"/>
            <polygon class="cls-6" points="14.32 13.75 14.32 13.75 14.31 13.75 14.31 13.75 14.31 13.75 14.32 13.75"/>
            <rect class="cls-77" x="14.32" y="13.74" width="0" height="0" transform="translate(-4.38 20.4) rotate(-63.43)"/>
            <polygon class="cls-88" points="14.31 13.74 14.31 13.74 14.31 13.74 14.31 13.74"/>
            <polygon class="cls-36" points="14.31 13.75 14.32 13.75 14.32 13.76 14.31 13.75"/>
            <polygon class="cls-7" points="14.32 13.76 14.32 13.76 14.32 13.76 14.31 13.76 14.32 13.76 14.32 13.76"/>
            <rect class="cls-12" x="14.31" y="13.76" width="0" height="0" transform="translate(-2.07 2.54) rotate(-9.46)"/>
            <rect class="cls-56" x="14.31" y="13.75" width="0" height="0" transform="translate(-4.26 6.75) rotate(-23.2)"/>
            <rect class="cls-49" x="14.31" y="13.74" width="0" height="0" transform="translate(-2.32 2.92) rotate(-10.78)"/>
            <rect class="cls-55" x="14.31" y="13.75" width="0" height="0" transform="translate(-4.61 19.73) rotate(-61.39)"/>
            <polygon class="cls-47" points="14.31 13.76 14.31 13.76 14.31 13.76 14.31 13.76"/>
            <polygon class="cls-38" points="14.31 13.75 14.32 13.75 14.31 13.75 14.31 13.75 14.31 13.75 14.31 13.75"/>
            <rect class="cls-53" x="14.31" y="13.75" width="0" height="0" transform="translate(-4.64 7.85) rotate(-26.57)"/>
            <rect class="cls-79" x="14.32" y="13.76" width="0" height="0" transform="translate(-5.37 16.35) rotate(-51.34)"/>
            <rect class="cls-75" x="14.31" y="13.75" width="0" height="0" transform="translate(-3.97 21.49) rotate(-66.8)"/>
            <polygon class="cls-74" points="14.31 13.75 14.31 13.75 14.3 13.75 14.31 13.75"/>
            <polygon class="cls-97" points="14.32 13.76 14.32 13.76 14.32 13.76 14.32 13.76"/>
            <polygon class="cls-106" points="14.32 13.76 14.33 13.76 14.33 13.77 14.32 13.76 14.32 13.76 14.32 13.76"/>
            <rect class="cls-27" x="14.32" y="13.76" width="0" height="0" transform="translate(-.63 26.84) rotate(-85)"/>
            <rect class="cls-98" x="14.31" y="13.75" width="0" height="0" transform="translate(-5.22 10.25) rotate(-33.69)"/>
            <rect class="cls-107" x="14.31" y="13.75" width="0" height="0" transform="translate(-2.99 4.02) rotate(-14.48)"/>
            <polygon class="cls-104" points="14.31 13.75 14.32 13.76 14.32 13.76 14.32 13.76 14.31 13.76 14.31 13.75"/>
            <polygon class="cls-112" points="14.32 13.76 14.32 13.76 14.32 13.76 14.32 13.76"/>
            <rect class="cls-22" x="14.31" y="13.75" width="0" height="0" transform="translate(-5.53 13.11) rotate(-41.99)"/>
            <polygon class="cls-82" points="14.32 13.76 14.32 13.76 14.32 13.76 14.32 13.76"/>
            <polygon class="cls-41" points="14.3 13.76 14.31 13.76 14.31 13.76 14.3 13.76"/>
            <rect class="cls-72" x="14.32" y="13.76" width="0" height="0" transform="translate(-1.43 1.67) rotate(-6.34)"/>
            <rect class="cls-65" x="14.31" y="13.76" width="0" height="0" transform="translate(-1.8 2.16) rotate(-8.13)"/>
            <polygon class="cls-71" points="14.33 13.76 14.33 13.76 14.33 13.76 14.33 13.76 14.33 13.76 14.33 13.76"/>
            <rect class="cls-14" x="14.33" y="13.76" width="0" height="0" transform="translate(-5.43 11.69) rotate(-37.87)"/>
            <rect class="cls-68" x="14.33" y="13.75" width="0" height="0" transform="translate(-5.3 10.71) rotate(-34.99)"/>
            <rect class="cls-15" x="14.31" y="13.76" width="0" height="0"/>
            <rect class="cls-59" x="14.31" y="13.76" width="0" height="0" transform="translate(-5.37 16.34) rotate(-51.34)"/>
            <polygon class="cls-48" points="14.32 13.76 14.32 13.76 14.32 13.76 14.32 13.76 14.32 13.76 14.32 13.76"/>
            <polygon class="cls-105" points="14.32 13.76 14.32 13.76 14.32 13.76 14.32 13.76"/>
            <rect class="cls-120" x="14.32" y="13.76" width="0" height="0"/>
            <polygon class="cls-21" points="14.31 13.77 14.32 13.76 14.32 13.77 14.31 13.77"/>
            <rect class="cls-96" x="14.33" y="13.75" width="0" height="0" transform="translate(-.97 26.41) rotate(-83.42)"/>
            <rect class="cls-110" x="14.32" y="13.76" width="0" height="0" transform="translate(-5.53 14.35) rotate(-45.57)"/>
            <rect class="cls-80" x="14.33" y="13.75" width="0" height="0" transform="translate(-5.5 12.64) rotate(-40.6)"/>
            <polygon class="cls-91" points="14.33 13.76 14.32 13.76 14.33 13.75 14.33 13.76"/>
            <polygon class="cls-100" points="14.33 13.76 14.33 13.75 14.33 13.75 14.33 13.75 14.33 13.76 14.33 13.76"/>
            <polygon class="cls-87" points="14.33 13.75 14.33 13.75 14.33 13.75 14.33 13.75 14.33 13.75 14.33 13.75"/>
            <polygon class="cls-4" points="14.33 13.75 14.33 13.75 14.33 13.75 14.33 13.75"/>
            <rect class="cls-94" x="14.33" y="13.75" width="0" height="0" transform="translate(-2.98 23.48) rotate(-73.14)"/>
            <rect class="cls-54" x="14.31" y="13.76" width="0" height="0" transform="translate(-5.47 12.11) rotate(-39.09)"/>
            <rect class="cls-81" x="14.32" y="13.76" width="0" height="0"/>
            <polygon class="cls-115" points="14.32 13.76 14.32 13.76 14.33 13.76 14.33 13.76 14.32 13.76 14.32 13.76"/>
            <polygon class="cls-99" points="14.33 13.76 14.33 13.76 14.33 13.76 14.33 13.76"/>
            <rect class="cls-43" x="14.33" y="13.76" width="0" height="0"/>
            <rect class="cls-108" x="14.32" y="13.76" width="0" height="0" transform="translate(-5.53 14.16) rotate(-45)"/>
          </g>
        </g>
        <g>
          <text class="cls-11" transform="translate(9.65 14.71)"><tspan x="0" y="0">Gold</tspan></text>
          <g>
            <path class="cls-17" d="M11.29,14.76c-.27,0-.51-.06-.72-.18s-.38-.29-.51-.52c-.13-.23-.19-.5-.19-.83,0-.25.04-.46.11-.65s.17-.35.31-.49c.13-.13.28-.23.45-.3s.35-.1.55-.1c.21,0,.4.04.55.12.15.08.27.17.37.26l-.32.38c-.08-.07-.16-.13-.25-.18-.09-.05-.2-.07-.33-.07-.17,0-.31.04-.44.12-.12.08-.22.2-.29.35s-.1.33-.1.55.03.4.1.55.16.27.29.35.29.12.48.12c.07,0,.14,0,.21-.03.07-.02.12-.05.16-.08v-.58h-.52v-.48h1.06v1.34c-.1.1-.24.18-.4.25s-.35.1-.56.1Z"/>
            <path class="cls-16" d="M13.77,14.76c-.19,0-.36-.05-.53-.14-.16-.09-.3-.23-.4-.4s-.15-.39-.15-.63.05-.46.15-.63.23-.31.4-.4.34-.14.53-.14c.14,0,.28.03.4.08.13.05.24.13.34.23s.18.22.24.37.09.31.09.5c0,.25-.05.46-.15.63s-.23.31-.4.4c-.16.09-.34.14-.53.14ZM13.77,14.29c.1,0,.19-.03.26-.09.07-.06.12-.14.16-.24.04-.1.05-.23.05-.37s-.02-.26-.05-.37c-.04-.1-.09-.18-.16-.24-.07-.06-.16-.09-.26-.09s-.19.03-.26.09c-.07.06-.12.14-.16.24-.04.1-.05.23-.05.37s.02.26.05.37c.04.1.09.18.16.24.07.06.16.09.26.09Z"/>
            <path class="cls-18" d="M15.89,14.76c-.14,0-.25-.03-.33-.09s-.14-.14-.17-.24-.05-.22-.05-.36v-2.56h.59v2.59c0,.07.01.11.04.14.03.03.05.04.08.04.01,0,.03,0,.04,0,.01,0,.03,0,.04,0l.07.44s-.08.03-.13.04c-.05.01-.11.02-.17.02Z"/>
            <path class="cls-19" d="M17.39,14.76c-.19,0-.35-.05-.49-.14-.14-.09-.24-.23-.32-.4-.07-.18-.11-.39-.11-.63s.04-.45.13-.63c.09-.17.21-.31.35-.41.14-.1.3-.14.46-.14.12,0,.23.02.32.07.09.04.17.1.25.18l-.02-.35v-.79h.59v3.19h-.48l-.04-.23h-.02c-.08.08-.18.15-.28.2-.11.06-.22.08-.34.08ZM17.54,14.28c.08,0,.15-.02.22-.05.07-.04.13-.09.2-.18v-.98c-.07-.06-.13-.1-.21-.13-.07-.03-.14-.04-.21-.04-.08,0-.16.03-.23.08-.07.05-.13.13-.17.23-.04.1-.06.23-.06.38s.02.28.05.39c.04.1.09.18.16.23.07.05.15.08.25.08Z"/>
          </g>
          <text class="cls-11" transform="translate(9.65 14.71)"><tspan x="0" y="0">Gold</tspan></text>
        </g>
      </g>
    </g>
  </g>
</svg>