<?xml version="1.0" encoding="UTF-8"?>
<svg id="_圖層_3" data-name="圖層 3" xmlns="http://www.w3.org/2000/svg" xmlns:xlink="http://www.w3.org/1999/xlink" viewBox="0 0 36.98 38.06">
  <defs>
    <style>
      .cls-1 {
        fill: url(#_未命名漸層_6-59);
      }

      .cls-2 {
        fill: url(#_未命名漸層_6-23);
      }

      .cls-3 {
        fill: url(#_未命名漸層_6-57);
      }

      .cls-4 {
        fill: url(#_未命名漸層_6-7);
      }

      .cls-5 {
        fill: url(#_未命名漸層_6-15);
      }

      .cls-6 {
        fill: url(#_未命名漸層_6-13);
      }

      .cls-7 {
        fill: url(#_未命名漸層_6-83);
      }

      .cls-8 {
        fill: url(#_未命名漸層_6-17);
      }

      .cls-9 {
        fill: url(#_未命名漸層_6-73);
      }

      .cls-10 {
        fill: url(#_未命名漸層_6-41);
      }

      .cls-11 {
        stroke: url(#linear-gradient-6);
      }

      .cls-11, .cls-12, .cls-13, .cls-14, .cls-15, .cls-16, .cls-17, .cls-18, .cls-19 {
        fill: none;
      }

      .cls-11, .cls-12, .cls-13, .cls-15, .cls-16, .cls-17, .cls-18, .cls-19 {
        stroke-linecap: round;
      }

      .cls-11, .cls-12, .cls-13, .cls-15, .cls-17, .cls-18, .cls-19 {
        stroke-linejoin: round;
      }

      .cls-20 {
        fill: url(#_未命名漸層_6-50);
      }

      .cls-21 {
        fill: url(#_未命名漸層_4-3);
      }

      .cls-22 {
        fill: #fff;
        font-family: NotoSansTC-Bold, 'Noto Sans TC';
        font-size: 4px;
        font-variation-settings: 'wght' 700;
        font-weight: 700;
      }

      .cls-23 {
        fill: url(#_未命名漸層_6-62);
      }

      .cls-24 {
        fill: url(#_未命名漸層_6-51);
      }

      .cls-25 {
        fill: url(#linear-gradient-2);
      }

      .cls-12 {
        stroke: url(#linear-gradient-7);
      }

      .cls-26 {
        fill: url(#_未命名漸層_6-69);
      }

      .cls-27 {
        fill: url(#_未命名漸層_6-33);
      }

      .cls-28 {
        fill: url(#_未命名漸層_6-22);
      }

      .cls-29 {
        fill: url(#_未命名漸層_6-44);
      }

      .cls-30 {
        fill: url(#_未命名漸層_6-58);
      }

      .cls-31 {
        fill: url(#_未命名漸層_6-53);
      }

      .cls-32 {
        fill: url(#_未命名漸層_4-5);
      }

      .cls-33 {
        fill: url(#_未命名漸層_6-19);
      }

      .cls-34 {
        fill: url(#_未命名漸層_6);
      }

      .cls-35 {
        fill: url(#_未命名漸層_6-48);
      }

      .cls-36 {
        fill: url(#_未命名漸層_4-2);
      }

      .cls-37 {
        fill: url(#_未命名漸層_6-61);
      }

      .cls-38 {
        fill: url(#_未命名漸層_6-32);
      }

      .cls-39 {
        fill: url(#_未命名漸層_6-46);
      }

      .cls-40 {
        fill: url(#_未命名漸層_6-38);
      }

      .cls-41 {
        fill: url(#_未命名漸層_6-11);
      }

      .cls-42 {
        fill: #bae3f9;
      }

      .cls-43 {
        fill: url(#_未命名漸層_6-45);
      }

      .cls-44 {
        fill: url(#_未命名漸層_6-56);
      }

      .cls-13 {
        stroke: url(#linear-gradient-4);
      }

      .cls-45 {
        fill: url(#_未命名漸層_6-42);
      }

      .cls-46 {
        fill: url(#_未命名漸層_6-28);
      }

      .cls-47 {
        fill: url(#radial-gradient-5);
      }

      .cls-48 {
        fill: url(#_未命名漸層_6-20);
      }

      .cls-49 {
        fill: url(#radial-gradient);
      }

      .cls-50 {
        fill: url(#radial-gradient-3);
      }

      .cls-51 {
        fill: url(#_未命名漸層_6-18);
      }

      .cls-52 {
        fill: url(#_未命名漸層_6-35);
      }

      .cls-53 {
        fill: url(#_未命名漸層_6-71);
      }

      .cls-54 {
        fill: url(#_未命名漸層_6-81);
      }

      .cls-55 {
        fill: url(#_未命名漸層_6-49);
      }

      .cls-56 {
        fill: url(#_未命名漸層_6-47);
      }

      .cls-57 {
        fill: url(#_未命名漸層_6-40);
      }

      .cls-58 {
        fill: url(#_未命名漸層_6-65);
      }

      .cls-59 {
        fill: url(#_未命名漸層_6-30);
      }

      .cls-15 {
        stroke: url(#linear-gradient-9);
      }

      .cls-60 {
        fill: url(#_未命名漸層_6-72);
      }

      .cls-61 {
        fill: url(#_未命名漸層_6-66);
      }

      .cls-62 {
        fill: url(#_未命名漸層_6-10);
      }

      .cls-16 {
        stroke: #2b99cd;
        stroke-width: .75px;
      }

      .cls-17 {
        stroke: url(#linear-gradient-5);
      }

      .cls-63 {
        fill: url(#_未命名漸層_6-6);
      }

      .cls-64 {
        fill: url(#radial-gradient-2);
      }

      .cls-65 {
        fill: url(#_未命名漸層_6-21);
      }

      .cls-66 {
        fill: url(#_未命名漸層_6-39);
      }

      .cls-67 {
        fill: url(#_未命名漸層_6-84);
      }

      .cls-68 {
        fill: url(#_未命名漸層_4-4);
      }

      .cls-69 {
        fill: url(#radial-gradient-4);
      }

      .cls-70 {
        fill: url(#_未命名漸層_6-14);
      }

      .cls-71 {
        fill: url(#_未命名漸層_6-82);
      }

      .cls-72 {
        fill: #54c3f1;
      }

      .cls-73 {
        fill: url(#_未命名漸層_6-77);
      }

      .cls-74 {
        fill: url(#_未命名漸層_6-86);
      }

      .cls-75 {
        fill: url(#_未命名漸層_6-31);
      }

      .cls-76 {
        fill: url(#_未命名漸層_6-29);
      }

      .cls-77 {
        fill: url(#_未命名漸層_6-68);
      }

      .cls-78 {
        fill: url(#_未命名漸層_6-2);
      }

      .cls-79 {
        fill: #9fd9f6;
      }

      .cls-80 {
        fill: url(#_未命名漸層_6-5);
      }

      .cls-81 {
        fill: #7ecef4;
      }

      .cls-82 {
        fill: url(#_未命名漸層_6-78);
      }

      .cls-83 {
        fill: url(#_未命名漸層_6-80);
      }

      .cls-84 {
        fill: url(#_未命名漸層_6-60);
      }

      .cls-85 {
        fill: url(#_未命名漸層_6-34);
      }

      .cls-86 {
        fill: url(#_未命名漸層_6-36);
      }

      .cls-87 {
        fill: url(#_未命名漸層_6-16);
      }

      .cls-88 {
        fill: url(#_未命名漸層_6-43);
      }

      .cls-89 {
        fill: url(#_未命名漸層_6-8);
      }

      .cls-90 {
        fill: url(#_未命名漸層_6-4);
      }

      .cls-91 {
        fill: url(#_未命名漸層_6-70);
      }

      .cls-92 {
        fill: url(#_未命名漸層_6-27);
      }

      .cls-93 {
        fill: #2b99cd;
      }

      .cls-94 {
        fill: url(#_未命名漸層_6-63);
      }

      .cls-95 {
        fill: url(#_未命名漸層_6-79);
      }

      .cls-96 {
        fill: url(#_未命名漸層_6-9);
      }

      .cls-97 {
        fill: url(#_未命名漸層_6-55);
      }

      .cls-18 {
        stroke: url(#linear-gradient-8);
      }

      .cls-98 {
        fill: url(#_未命名漸層_6-54);
      }

      .cls-99 {
        fill: url(#_未命名漸層_6-37);
      }

      .cls-100 {
        fill: url(#_未命名漸層_6-3);
      }

      .cls-101 {
        fill: url(#_未命名漸層_6-75);
      }

      .cls-102 {
        fill: url(#_未命名漸層_6-74);
      }

      .cls-103 {
        fill: url(#_未命名漸層_6-12);
      }

      .cls-19 {
        stroke: url(#linear-gradient-3);
      }

      .cls-104 {
        fill: url(#_未命名漸層_6-67);
      }

      .cls-105 {
        fill: url(#_未命名漸層_6-52);
      }

      .cls-106 {
        fill: url(#_未命名漸層_6-25);
      }

      .cls-107 {
        fill: url(#linear-gradient);
      }

      .cls-108 {
        fill: url(#_未命名漸層_6-64);
      }

      .cls-109 {
        fill: url(#_未命名漸層_6-85);
      }

      .cls-110 {
        clip-path: url(#clippath);
      }

      .cls-111 {
        fill: url(#_未命名漸層_6-76);
      }

      .cls-112 {
        fill: url(#_未命名漸層_6-24);
      }

      .cls-113 {
        fill: url(#_未命名漸層_4);
      }

      .cls-114 {
        fill: url(#_未命名漸層_6-26);
      }
    </style>
    <radialGradient id="radial-gradient" cx="536.37" cy="329.24" fx="536.37" fy="329.24" r=".07" gradientTransform="translate(26930.75 107601.94) rotate(-72.5) scale(176.24 -176.24)" gradientUnits="userSpaceOnUse">
      <stop offset="0" stop-color="#feebbe"/>
      <stop offset=".6" stop-color="#c7a630"/>
      <stop offset=".7" stop-color="#bf9a21"/>
      <stop offset=".88" stop-color="#b48708"/>
      <stop offset="1" stop-color="#b08000"/>
    </radialGradient>
    <linearGradient id="linear-gradient" x1="535.13" y1="321.2" x2="535.26" y2="321.2" gradientTransform="translate(-52260.14 -87073.35) rotate(90) scale(162.76 -162.76)" gradientUnits="userSpaceOnUse">
      <stop offset="0" stop-color="#22a3dd"/>
      <stop offset=".15" stop-color="#7bcbdc"/>
      <stop offset=".28" stop-color="#bfe4f1"/>
      <stop offset=".39" stop-color="#a7d8ee"/>
      <stop offset=".62" stop-color="#6cbae6"/>
      <stop offset=".68" stop-color="#5db3e5"/>
      <stop offset=".87" stop-color="#3172ba"/>
      <stop offset="1" stop-color="#72c8da"/>
    </linearGradient>
    <radialGradient id="radial-gradient-2" cx="12.6" cy="26.61" fx="12.6" fy="26.61" r="4.44" gradientTransform="matrix(1,0,0,1,0,0)" xlink:href="#radial-gradient"/>
    <radialGradient id="radial-gradient-3" cx="13.7" cy="22.15" fx="13.7" fy="22.15" r="7.83" gradientTransform="matrix(1,0,0,1,0,0)" xlink:href="#radial-gradient"/>
    <radialGradient id="radial-gradient-4" cx="23.28" cy="22.15" fx="23.28" fy="22.15" r="7.83" gradientTransform="matrix(1,0,0,1,0,0)" xlink:href="#radial-gradient"/>
    <radialGradient id="radial-gradient-5" cx="24.38" cy="26.61" fx="24.38" fy="26.61" r="4.44" gradientTransform="matrix(1,0,0,1,0,0)" xlink:href="#radial-gradient"/>
    <clipPath id="clippath">
      <path class="cls-14" d="M29.63,24.55c-1.86-6.09-1.46-9.8-.78-12.69-1.82,1.4-3.75-1.28-1.92-2.67H10.05c1.83,1.39-.1,4.07-1.92,2.67.67,2.89,1.07,6.6-.78,12.69-1.86,6.09,9.65,4.86,11.14,8.37,1.49-3.51,13-2.28,11.14-8.37Z"/>
    </clipPath>
    <linearGradient id="_未命名漸層_4" data-name="未命名漸層 4" x1="18.49" y1="32.14" x2="18.49" y2="9.98" gradientUnits="userSpaceOnUse">
      <stop offset="0" stop-color="#22a3dd"/>
      <stop offset=".15" stop-color="#7bcbdc"/>
      <stop offset=".28" stop-color="#bfe4f1"/>
      <stop offset=".39" stop-color="#a7d8ee"/>
      <stop offset=".62" stop-color="#6cbae6"/>
      <stop offset=".68" stop-color="#5db3e5"/>
      <stop offset=".87" stop-color="#3172ba"/>
      <stop offset="1" stop-color="#72c8da"/>
    </linearGradient>
    <linearGradient id="_未命名漸層_4-2" data-name="未命名漸層 4" x1="183.87" y1="-222.14" x2="192.69" y2="-241.05" gradientTransform="translate(-59.8 311.17) rotate(-25)" xlink:href="#_未命名漸層_4"/>
    <linearGradient id="_未命名漸層_4-3" data-name="未命名漸層 4" x1="443.94" y1="-383.1" x2="455.94" y2="-393.17" gradientTransform="translate(17.52 618.47) rotate(-50)" xlink:href="#_未命名漸層_4"/>
    <linearGradient id="_未命名漸層_4-4" data-name="未命名漸層 4" x1="-24.45" y1="330.15" x2="-33.27" y2="311.24" gradientTransform="translate(185.7 -256.75) rotate(25)" xlink:href="#_未命名漸層_4"/>
    <linearGradient id="_未命名漸層_4-5" data-name="未命名漸層 4" x1="59.86" y1="618" x2="47.85" y2="607.93" gradientTransform="translate(462.51 -410.96) rotate(50)" xlink:href="#_未命名漸層_4"/>
    <linearGradient id="linear-gradient-2" x1="7.15" y1="21.06" x2="29.83" y2="21.06" gradientTransform="matrix(1,0,0,1,0,0)" xlink:href="#linear-gradient"/>
    <linearGradient id="_未命名漸層_6" data-name="未命名漸層 6" x1="23.82" y1="3.94" x2="23.82" y2="37.68" gradientUnits="userSpaceOnUse">
      <stop offset="0" stop-color="#22a3dd"/>
      <stop offset=".15" stop-color="#7bcbdc"/>
      <stop offset=".28" stop-color="#bfe4f1"/>
      <stop offset=".39" stop-color="#a7d8ee"/>
      <stop offset=".62" stop-color="#6cbae6"/>
      <stop offset=".68" stop-color="#5db3e5"/>
      <stop offset=".87" stop-color="#3172ba"/>
      <stop offset="1" stop-color="#72c8da"/>
    </linearGradient>
    <linearGradient id="_未命名漸層_6-2" data-name="未命名漸層 6" x1="24.69" y1="3.94" x2="24.69" y2="37.67" xlink:href="#_未命名漸層_6"/>
    <linearGradient id="_未命名漸層_6-3" data-name="未命名漸層 6" x1="25.76" y1="3.94" x2="25.76" y2="37.67" xlink:href="#_未命名漸層_6"/>
    <linearGradient id="_未命名漸層_6-4" data-name="未命名漸層 6" x1="26.83" y1="3.94" x2="26.83" y2="37.67" xlink:href="#_未命名漸層_6"/>
    <linearGradient id="_未命名漸層_6-5" data-name="未命名漸層 6" x1="27.87" y1="3.94" x2="27.87" y2="37.67" xlink:href="#_未命名漸層_6"/>
    <linearGradient id="_未命名漸層_6-6" data-name="未命名漸層 6" x1="28.88" y1="3.94" x2="28.88" y2="37.67" xlink:href="#_未命名漸層_6"/>
    <linearGradient id="_未命名漸層_6-7" data-name="未命名漸層 6" x1="29.84" y1="3.94" x2="29.84" y2="37.67" xlink:href="#_未命名漸層_6"/>
    <linearGradient id="_未命名漸層_6-8" data-name="未命名漸層 6" x1="30.74" y1="3.94" x2="30.74" y2="37.67" xlink:href="#_未命名漸層_6"/>
    <linearGradient id="_未命名漸層_6-9" data-name="未命名漸層 6" x1="31.55" y1="3.94" x2="31.55" y2="37.67" xlink:href="#_未命名漸層_6"/>
    <linearGradient id="_未命名漸層_6-10" data-name="未命名漸層 6" x1="32.25" y1="3.94" x2="32.25" y2="37.67" xlink:href="#_未命名漸層_6"/>
    <linearGradient id="_未命名漸層_6-11" data-name="未命名漸層 6" x1="32.81" y1="3.94" x2="32.81" y2="37.67" xlink:href="#_未命名漸層_6"/>
    <linearGradient id="_未命名漸層_6-12" data-name="未命名漸層 6" x1="33.22" y1="3.94" x2="33.22" y2="37.67" xlink:href="#_未命名漸層_6"/>
    <linearGradient id="_未命名漸層_6-13" data-name="未命名漸層 6" x1="33.44" y1="3.94" x2="33.44" y2="37.67" xlink:href="#_未命名漸層_6"/>
    <linearGradient id="_未命名漸層_6-14" data-name="未命名漸層 6" x1="33.46" y1="3.94" x2="33.46" y2="37.67" xlink:href="#_未命名漸層_6"/>
    <linearGradient id="_未命名漸層_6-15" data-name="未命名漸層 6" x1="33.25" y1="3.94" x2="33.25" y2="37.67" xlink:href="#_未命名漸層_6"/>
    <linearGradient id="_未命名漸層_6-16" data-name="未命名漸層 6" x1="32.79" y1="3.94" x2="32.79" y2="37.67" xlink:href="#_未命名漸層_6"/>
    <linearGradient id="_未命名漸層_6-17" data-name="未命名漸層 6" x1="32.06" y1="3.94" x2="32.06" y2="37.67" xlink:href="#_未命名漸層_6"/>
    <linearGradient id="_未命名漸層_6-18" data-name="未命名漸層 6" x1="31.03" y1="3.94" x2="31.03" y2="37.67" xlink:href="#_未命名漸層_6"/>
    <linearGradient id="_未命名漸層_6-19" data-name="未命名漸層 6" x1="29.71" y1="3.94" x2="29.71" y2="37.67" xlink:href="#_未命名漸層_6"/>
    <linearGradient id="_未命名漸層_6-20" data-name="未命名漸層 6" x1="28.09" y1="3.94" x2="28.09" y2="37.67" xlink:href="#_未命名漸層_6"/>
    <linearGradient id="_未命名漸層_6-21" data-name="未命名漸層 6" x1="26.15" y1="3.94" x2="26.15" y2="37.67" xlink:href="#_未命名漸層_6"/>
    <linearGradient id="_未命名漸層_6-22" data-name="未命名漸層 6" x1="23.91" y1="3.94" x2="23.91" y2="37.67" xlink:href="#_未命名漸層_6"/>
    <linearGradient id="_未命名漸層_6-23" data-name="未命名漸層 6" x1="25.29" y1="3.94" x2="25.29" y2="37.67" xlink:href="#_未命名漸層_6"/>
    <linearGradient id="_未命名漸層_6-24" data-name="未命名漸層 6" x1="26.5" y1="3.94" x2="26.5" y2="37.67" xlink:href="#_未命名漸層_6"/>
    <linearGradient id="_未命名漸層_6-25" data-name="未命名漸層 6" x1="27.72" y1="3.94" x2="27.72" y2="37.67" xlink:href="#_未命名漸層_6"/>
    <linearGradient id="_未命名漸層_6-26" data-name="未命名漸層 6" x1="28.92" y1="3.94" x2="28.92" y2="37.67" xlink:href="#_未命名漸層_6"/>
    <linearGradient id="_未命名漸層_6-27" data-name="未命名漸層 6" x1="30.11" y1="3.94" x2="30.11" y2="37.67" xlink:href="#_未命名漸層_6"/>
    <linearGradient id="_未命名漸層_6-28" data-name="未命名漸層 6" x1="31.24" y1="3.94" x2="31.24" y2="37.68" xlink:href="#_未命名漸層_6"/>
    <linearGradient id="_未命名漸層_6-29" data-name="未命名漸層 6" x1="32.32" y1="3.94" x2="32.32" y2="37.68" xlink:href="#_未命名漸層_6"/>
    <linearGradient id="_未命名漸層_6-30" data-name="未命名漸層 6" x1="33.31" y1="3.94" x2="33.31" y2="37.67" xlink:href="#_未命名漸層_6"/>
    <linearGradient id="_未命名漸層_6-31" data-name="未命名漸層 6" x1="34.18" y1="3.94" x2="34.18" y2="37.67" xlink:href="#_未命名漸層_6"/>
    <linearGradient id="_未命名漸層_6-32" data-name="未命名漸層 6" x1="34.92" y1="3.94" x2="34.92" y2="37.67" xlink:href="#_未命名漸層_6"/>
    <linearGradient id="_未命名漸層_6-33" data-name="未命名漸層 6" x1="35.47" y1="3.94" x2="35.47" y2="37.67" xlink:href="#_未命名漸層_6"/>
    <linearGradient id="_未命名漸層_6-34" data-name="未命名漸層 6" x1="35.81" y1="3.94" x2="35.81" y2="37.67" xlink:href="#_未命名漸層_6"/>
    <linearGradient id="_未命名漸層_6-35" data-name="未命名漸層 6" x1="35.92" y1="3.94" x2="35.92" y2="37.67" xlink:href="#_未命名漸層_6"/>
    <linearGradient id="_未命名漸層_6-36" data-name="未命名漸層 6" x1="35.76" y1="3.94" x2="35.76" y2="37.67" xlink:href="#_未命名漸層_6"/>
    <linearGradient id="_未命名漸層_6-37" data-name="未命名漸層 6" x1="35.3" y1="3.94" x2="35.3" y2="37.67" xlink:href="#_未命名漸層_6"/>
    <linearGradient id="_未命名漸層_6-38" data-name="未命名漸層 6" x1="34.52" y1="3.94" x2="34.52" y2="37.67" xlink:href="#_未命名漸層_6"/>
    <linearGradient id="_未命名漸層_6-39" data-name="未命名漸層 6" x1="33.38" y1="3.94" x2="33.38" y2="37.67" xlink:href="#_未命名漸層_6"/>
    <linearGradient id="_未命名漸層_6-40" data-name="未命名漸層 6" x1="31.87" y1="3.94" x2="31.87" y2="37.67" xlink:href="#_未命名漸層_6"/>
    <linearGradient id="_未命名漸層_6-41" data-name="未命名漸層 6" x1="29.99" y1="3.94" x2="29.99" y2="37.67" xlink:href="#_未命名漸層_6"/>
    <linearGradient id="_未命名漸層_6-42" data-name="未命名漸層 6" x1="27.73" y1="3.94" x2="27.73" y2="37.67" xlink:href="#_未命名漸層_6"/>
    <linearGradient id="_未命名漸層_6-43" data-name="未命名漸層 6" x1="25.12" y1="3.94" x2="25.12" y2="37.67" xlink:href="#_未命名漸層_6"/>
    <linearGradient id="_未命名漸層_6-44" data-name="未命名漸層 6" x1="13.16" x2="13.16" xlink:href="#_未命名漸層_6"/>
    <linearGradient id="_未命名漸層_6-45" data-name="未命名漸層 6" x1="12.29" y1="3.94" x2="12.29" y2="37.67" xlink:href="#_未命名漸層_6"/>
    <linearGradient id="_未命名漸層_6-46" data-name="未命名漸層 6" x1="11.22" y1="3.94" x2="11.22" y2="37.67" xlink:href="#_未命名漸層_6"/>
    <linearGradient id="_未命名漸層_6-47" data-name="未命名漸層 6" x1="10.15" y1="3.94" x2="10.15" y2="37.67" xlink:href="#_未命名漸層_6"/>
    <linearGradient id="_未命名漸層_6-48" data-name="未命名漸層 6" x1="9.11" y1="3.94" x2="9.11" y2="37.67" xlink:href="#_未命名漸層_6"/>
    <linearGradient id="_未命名漸層_6-49" data-name="未命名漸層 6" x1="8.1" y1="3.94" x2="8.1" y2="37.67" xlink:href="#_未命名漸層_6"/>
    <linearGradient id="_未命名漸層_6-50" data-name="未命名漸層 6" x1="7.14" y1="3.94" x2="7.14" y2="37.67" xlink:href="#_未命名漸層_6"/>
    <linearGradient id="_未命名漸層_6-51" data-name="未命名漸層 6" x1="6.24" y1="3.94" x2="6.24" y2="37.67" xlink:href="#_未命名漸層_6"/>
    <linearGradient id="_未命名漸層_6-52" data-name="未命名漸層 6" x1="5.43" y1="3.94" x2="5.43" y2="37.67" xlink:href="#_未命名漸層_6"/>
    <linearGradient id="_未命名漸層_6-53" data-name="未命名漸層 6" x1="4.73" y1="3.94" x2="4.73" y2="37.67" xlink:href="#_未命名漸層_6"/>
    <linearGradient id="_未命名漸層_6-54" data-name="未命名漸層 6" x1="4.17" y1="3.94" x2="4.17" y2="37.67" xlink:href="#_未命名漸層_6"/>
    <linearGradient id="_未命名漸層_6-55" data-name="未命名漸層 6" x1="3.76" y1="3.94" x2="3.76" y2="37.67" xlink:href="#_未命名漸層_6"/>
    <linearGradient id="_未命名漸層_6-56" data-name="未命名漸層 6" x1="3.54" y1="3.94" x2="3.54" y2="37.67" xlink:href="#_未命名漸層_6"/>
    <linearGradient id="_未命名漸層_6-57" data-name="未命名漸層 6" x1="3.52" y1="3.94" x2="3.52" y2="37.67" xlink:href="#_未命名漸層_6"/>
    <linearGradient id="_未命名漸層_6-58" data-name="未命名漸層 6" x1="3.73" y1="3.94" x2="3.73" y2="37.67" xlink:href="#_未命名漸層_6"/>
    <linearGradient id="_未命名漸層_6-59" data-name="未命名漸層 6" x1="4.19" y1="3.94" x2="4.19" y2="37.67" xlink:href="#_未命名漸層_6"/>
    <linearGradient id="_未命名漸層_6-60" data-name="未命名漸層 6" x1="4.92" y1="3.94" x2="4.92" y2="37.67" xlink:href="#_未命名漸層_6"/>
    <linearGradient id="_未命名漸層_6-61" data-name="未命名漸層 6" x1="5.95" y1="3.94" x2="5.95" y2="37.67" xlink:href="#_未命名漸層_6"/>
    <linearGradient id="_未命名漸層_6-62" data-name="未命名漸層 6" x1="7.27" y1="3.94" x2="7.27" y2="37.67" xlink:href="#_未命名漸層_6"/>
    <linearGradient id="_未命名漸層_6-63" data-name="未命名漸層 6" x1="8.89" y1="3.94" x2="8.89" y2="37.67" xlink:href="#_未命名漸層_6"/>
    <linearGradient id="_未命名漸層_6-64" data-name="未命名漸層 6" x1="10.83" y1="3.94" x2="10.83" y2="37.67" xlink:href="#_未命名漸層_6"/>
    <linearGradient id="_未命名漸層_6-65" data-name="未命名漸層 6" x1="13.07" y1="3.94" x2="13.07" y2="37.67" xlink:href="#_未命名漸層_6"/>
    <linearGradient id="_未命名漸層_6-66" data-name="未命名漸層 6" x1="11.7" y1="3.94" x2="11.7" y2="37.67" xlink:href="#_未命名漸層_6"/>
    <linearGradient id="_未命名漸層_6-67" data-name="未命名漸層 6" x1="10.48" y1="3.94" x2="10.48" y2="37.67" xlink:href="#_未命名漸層_6"/>
    <linearGradient id="_未命名漸層_6-68" data-name="未命名漸層 6" x1="9.26" y1="3.94" x2="9.26" y2="37.67" xlink:href="#_未命名漸層_6"/>
    <linearGradient id="_未命名漸層_6-69" data-name="未命名漸層 6" x1="8.06" y1="3.94" x2="8.06" y2="37.67" xlink:href="#_未命名漸層_6"/>
    <linearGradient id="_未命名漸層_6-70" data-name="未命名漸層 6" x1="6.87" y1="3.94" x2="6.87" y2="37.67" xlink:href="#_未命名漸層_6"/>
    <linearGradient id="_未命名漸層_6-71" data-name="未命名漸層 6" x1="5.74" y1="3.94" x2="5.74" y2="37.68" xlink:href="#_未命名漸層_6"/>
    <linearGradient id="_未命名漸層_6-72" data-name="未命名漸層 6" x1="4.66" y1="3.94" x2="4.66" y2="37.68" xlink:href="#_未命名漸層_6"/>
    <linearGradient id="_未命名漸層_6-73" data-name="未命名漸層 6" x1="3.67" y1="3.94" x2="3.67" y2="37.67" xlink:href="#_未命名漸層_6"/>
    <linearGradient id="_未命名漸層_6-74" data-name="未命名漸層 6" x1="2.8" y1="3.94" x2="2.8" y2="37.67" xlink:href="#_未命名漸層_6"/>
    <linearGradient id="_未命名漸層_6-75" data-name="未命名漸層 6" x1="2.06" y1="3.94" x2="2.06" y2="37.67" xlink:href="#_未命名漸層_6"/>
    <linearGradient id="_未命名漸層_6-76" data-name="未命名漸層 6" x1="1.51" y1="3.94" x2="1.51" y2="37.67" xlink:href="#_未命名漸層_6"/>
    <linearGradient id="_未命名漸層_6-77" data-name="未命名漸層 6" x1="1.17" y1="3.94" x2="1.17" y2="37.67" xlink:href="#_未命名漸層_6"/>
    <linearGradient id="_未命名漸層_6-78" data-name="未命名漸層 6" x1="1.06" y1="3.94" x2="1.06" y2="37.67" xlink:href="#_未命名漸層_6"/>
    <linearGradient id="_未命名漸層_6-79" data-name="未命名漸層 6" x1="1.22" y1="3.94" x2="1.22" y2="37.67" xlink:href="#_未命名漸層_6"/>
    <linearGradient id="_未命名漸層_6-80" data-name="未命名漸層 6" x1="1.68" y1="3.94" x2="1.68" y2="37.67" xlink:href="#_未命名漸層_6"/>
    <linearGradient id="_未命名漸層_6-81" data-name="未命名漸層 6" x1="2.46" y1="3.94" x2="2.46" y2="37.67" xlink:href="#_未命名漸層_6"/>
    <linearGradient id="_未命名漸層_6-82" data-name="未命名漸層 6" x1="3.6" y1="3.94" x2="3.6" y2="37.67" xlink:href="#_未命名漸層_6"/>
    <linearGradient id="_未命名漸層_6-83" data-name="未命名漸層 6" x1="5.11" y1="3.94" x2="5.11" y2="37.67" xlink:href="#_未命名漸層_6"/>
    <linearGradient id="_未命名漸層_6-84" data-name="未命名漸層 6" x1="6.99" y1="3.94" x2="6.99" y2="37.67" xlink:href="#_未命名漸層_6"/>
    <linearGradient id="_未命名漸層_6-85" data-name="未命名漸層 6" x1="9.25" y1="3.94" x2="9.25" y2="37.67" xlink:href="#_未命名漸層_6"/>
    <linearGradient id="_未命名漸層_6-86" data-name="未命名漸層 6" x1="11.86" y1="3.94" x2="11.86" y2="37.67" xlink:href="#_未命名漸層_6"/>
    <linearGradient id="linear-gradient-3" x1="9.89" y1="20.75" x2="27.15" y2="20.75" gradientTransform="matrix(1,0,0,1,0,0)" xlink:href="#linear-gradient"/>
    <linearGradient id="linear-gradient-4" x1="9.89" y1="20.75" x2="27.15" y2="20.75" gradientTransform="matrix(1,0,0,1,0,0)" xlink:href="#linear-gradient"/>
    <linearGradient id="linear-gradient-5" x1="9.89" y1="20.75" x2="27.15" y2="20.75" gradientTransform="matrix(1,0,0,1,0,0)" xlink:href="#linear-gradient"/>
    <linearGradient id="linear-gradient-6" x1="9.89" y1="20.75" x2="27.15" y2="20.75" gradientTransform="matrix(1,0,0,1,0,0)" xlink:href="#linear-gradient"/>
    <linearGradient id="linear-gradient-7" x1="9.89" y1="20.75" x2="27.15" y2="20.75" gradientTransform="matrix(1,0,0,1,0,0)" xlink:href="#linear-gradient"/>
    <linearGradient id="linear-gradient-8" x1="9.89" y1="20.75" x2="27.15" y2="20.75" gradientTransform="matrix(1,0,0,1,0,0)" xlink:href="#linear-gradient"/>
    <linearGradient id="linear-gradient-9" x1="9.89" y1="20.75" x2="27.15" y2="20.75" gradientTransform="matrix(1,0,0,1,0,0)" xlink:href="#linear-gradient"/>
  </defs>
  <g>
    <path class="cls-16" d="M21.57,36.43c7.9-1.8,13.22-8.7,13.22-16.12,0-6.85-4.23-12.71-10.21-15.11"/>
    <path class="cls-16" d="M15.41,36.43c-7.9-1.8-13.22-8.7-13.22-16.12,0-6.85,4.23-12.71,10.21-15.11"/>
    <g>
      <g>
        <path class="cls-93" d="M23.2,4.64c.02.26.28.5.52.6.24.09.77.13,1.08-.02-.1-.34-.55-.68-.82-.74-.26-.07-.63-.04-.78.16Z"/>
        <path class="cls-93" d="M25.62,5.92c-.2-.23-.69-.28-.97-.18-.28.11-.48.41-.55.63.15.18.52.25.76.16.25-.1.6-.34.75-.61Z"/>
        <path class="cls-93" d="M26.75,6.54c-.19-.26-.69-.34-.99-.26-.3.09-.53.38-.62.61.14.19.51.3.77.23.26-.08.65-.3.83-.57Z"/>
        <path class="cls-93" d="M27.86,7.28c-.18-.28-.68-.42-1-.36-.32.06-.59.35-.69.58.13.21.5.36.78.3.28-.06.69-.25.91-.52Z"/>
        <path class="cls-93" d="M28.95,8.15c-.16-.31-.67-.51-1-.46-.34.04-.64.32-.76.54.12.23.49.41.79.37.29-.03.74-.2.98-.45Z"/>
        <path class="cls-93" d="M30,9.15c-.14-.33-.63-.6-1-.57-.36.01-.69.27-.84.49.1.25.48.46.78.46.3,0,.79-.14,1.06-.38Z"/>
        <path class="cls-93" d="M30.99,10.28c-.13-.34-.59-.68-.98-.69-.37-.02-.74.22-.92.44.08.26.46.51.76.55.31.03.83-.08,1.14-.29Z"/>
        <path class="cls-93" d="M31.91,11.55c-.11-.36-.57-.75-.94-.81-.39-.05-.8.16-1,.37.07.27.4.58.72.64.32.05.88,0,1.22-.2Z"/>
        <path class="cls-93" d="M32.72,12.96c-.04-.4-.52-.83-.89-.93-.38-.11-.83.08-1.06.27.04.29.34.65.68.74.34.08.9.09,1.28-.07Z"/>
        <path class="cls-93" d="M33.41,14.51c0-.42-.42-.93-.82-1.06-.39-.14-.86,0-1.13.17,0,.31.3.7.63.83.32.13.91.2,1.32.07Z"/>
        <path class="cls-93" d="M33.96,16.18c0-.42-.32-1.01-.73-1.19-.39-.19-.9-.1-1.19.05-.02.31.24.75.55.92.32.16.93.3,1.37.21Z"/>
        <path class="cls-93" d="M34.31,17.98c.11-.45-.25-1.07-.61-1.32-.36-.25-.92-.2-1.23-.08-.06.32.13.81.46,1.02.33.2.92.42,1.38.39Z"/>
        <path class="cls-93" d="M34.46,19.88c.14-.44-.09-1.14-.47-1.43-.36-.3-.92-.32-1.26-.23-.13.32.08.84.36,1.1.29.25.9.55,1.38.57Z"/>
        <path class="cls-93" d="M34.39,21.85c.21-.44.01-1.19-.3-1.54-.35-.35-.93-.44-1.29-.4-.13.32-.05.87.23,1.18.29.3.88.68,1.36.76Z"/>
        <path class="cls-93" d="M34.05,23.88c.27-.43.2-1.22-.12-1.63-.3-.4-.88-.57-1.26-.57-.22.3-.14.89.09,1.24.24.34.8.81,1.3.96Z"/>
        <path class="cls-93" d="M33.42,25.93c.36-.39.35-1.24.11-1.69-.26-.46-.85-.71-1.24-.76-.22.29-.3.89-.07,1.28.23.39.7.94,1.2,1.17Z"/>
        <path class="cls-93" d="M32.49,27.95c.39-.37.57-1.22.35-1.73-.21-.51-.77-.85-1.17-.96-.29.26-.4.88-.26,1.3.16.42.62,1.08,1.08,1.38Z"/>
        <path class="cls-93" d="M31.23,29.89c.46-.33.76-1.17.61-1.73-.13-.55-.65-.98-1.05-1.15-.36.21-.54.84-.46,1.29.1.45.46,1.2.91,1.58Z"/>
        <path class="cls-93" d="M29.63,31.69c.53-.26.96-1.09.89-1.68-.04-.58-.53-1.11-.91-1.34-.39.17-.69.77-.66,1.26.03.48.29,1.3.68,1.76Z"/>
        <path class="cls-93" d="M27.7,33.28c.59-.17,1.16-.96,1.19-1.58.05-.6-.38-1.23-.73-1.52-.42.12-.83.68-.87,1.19-.04.49.09,1.38.42,1.92Z"/>
        <path class="cls-93" d="M25.46,34.6c.63-.08,1.36-.8,1.48-1.43.15-.61-.19-1.32-.51-1.68-.45.05-.95.56-1.08,1.07-.12.5-.14,1.43.11,2.04Z"/>
        <path class="cls-93" d="M22.94,35.57c.66.01,1.53-.58,1.76-1.21.25-.6.03-1.38-.24-1.81-.47-.04-1.06.42-1.29.9-.21.49-.39,1.45-.24,2.12Z"/>
        <path class="cls-93" d="M25.89,5.38c-.3-.07-.68-.34-.82-.63-.13-.28-.08-.65.03-.85.26,0,.64.24.76.49.12.24.15.71.03.99Z"/>
        <path class="cls-93" d="M27.06,6.02c-.3-.09-.68-.41-.8-.72-.12-.31-.03-.68.1-.88.27.02.64.3.75.57.11.26.1.74-.05,1.03Z"/>
        <path class="cls-93" d="M28.23,6.78c-.31-.12-.67-.48-.76-.82-.1-.33.02-.71.18-.9.28.05.64.37.73.66.09.28.04.78-.14,1.06Z"/>
        <path class="cls-93" d="M29.37,7.67c-.31-.15-.64-.57-.72-.92-.07-.35.08-.73.26-.92.29.07.64.44.7.74.06.31-.03.82-.24,1.09Z"/>
        <path class="cls-93" d="M30.47,8.69c-.31-.18-.6-.66-.66-1.02-.04-.36.15-.75.35-.93.29.1.63.5.66.84.03.33-.11.84-.35,1.11Z"/>
        <path class="cls-93" d="M31.51,9.86c-.32-.2-.56-.75-.59-1.12-.01-.38.22-.76.45-.93.3.13.62.58.6.93,0,.35-.18.86-.46,1.11Z"/>
        <path class="cls-93" d="M32.48,11.17c-.32-.24-.52-.82-.5-1.22.02-.39.3-.76.55-.92.31.15.57.67.53,1.03-.03.36-.27.87-.58,1.1Z"/>
        <path class="cls-93" d="M33.35,12.64c-.28-.3-.47-.89-.39-1.31.08-.42.39-.77.67-.9.29.2.51.77.44,1.13-.06.36-.37.87-.73,1.08Z"/>
        <path class="cls-93" d="M34.08,14.25c-.26-.34-.36-.99-.26-1.4.12-.42.49-.75.79-.86.27.24.46.85.35,1.22-.12.38-.49.87-.88,1.05Z"/>
        <path class="cls-93" d="M34.66,15.99c-.26-.37-.25-1.07-.11-1.48.16-.42.58-.72.9-.8.27.28.4.93.22,1.3-.16.38-.59.84-1.01.98Z"/>
        <path class="cls-93" d="M35.05,17.87c-.17-.42-.18-1.12.06-1.55.24-.42.69-.68,1.03-.73.25.32.27,1.01.08,1.38-.19.37-.72.8-1.17.89Z"/>
        <path class="cls-93" d="M35.23,19.86c-.16-.45,0-1.18.25-1.59.28-.4.8-.62,1.15-.63.19.36.2,1.08-.08,1.44-.26.36-.84.74-1.32.78Z"/>
        <path class="cls-93" d="M35.17,21.93c-.1-.49.11-1.22.47-1.61.32-.38.89-.55,1.26-.51.2.4.04,1.14-.27,1.48-.3.34-.95.66-1.45.64Z"/>
        <path class="cls-93" d="M34.83,24.06c-.04-.52.31-1.25.68-1.61.4-.35,1.01-.45,1.38-.36.11.43-.08,1.2-.47,1.5-.38.31-1.08.56-1.6.47Z"/>
        <path class="cls-93" d="M34.19,26.22c.06-.53.46-1.25.94-1.56.46-.31,1.08-.34,1.46-.19.1.48-.28,1.22-.69,1.49-.4.28-1.2.42-1.71.26Z"/>
        <path class="cls-93" d="M33.23,28.35c.09-.56.68-1.21,1.18-1.48.51-.26,1.17-.19,1.54,0,.02.5-.44,1.24-.92,1.44-.48.22-1.27.28-1.79.03Z"/>
        <path class="cls-93" d="M31.91,30.41c.18-.56.88-1.15,1.43-1.35.57-.19,1.24-.02,1.59.24-.08.5-.63,1.22-1.17,1.35-.53.16-1.37.09-1.85-.24Z"/>
        <path class="cls-93" d="M30.24,32.32c.28-.54,1.08-1.05,1.69-1.17.62-.1,1.28.16,1.6.48-.16.51-.85,1.15-1.42,1.22-.57.08-1.43-.12-1.87-.53Z"/>
        <path class="cls-93" d="M28.22,34.01c.38-.51,1.28-.9,1.92-.93.66,0,1.29.36,1.57.74-.23.52-1.06,1.05-1.65,1.04-.6,0-1.45-.35-1.84-.85Z"/>
        <path class="cls-93" d="M25.86,35.43c.48-.46,1.46-.71,2.13-.64.68.11,1.27.58,1.5,1.02-.32.5-1.27.92-1.88.8-.62-.11-1.43-.6-1.75-1.18Z"/>
        <path class="cls-93" d="M23.2,36.47c.57-.4,1.63-.48,2.3-.29.68.22,1.21.81,1.37,1.3-.43.44-1.46.74-2.08.5-.62-.21-1.37-.86-1.59-1.51Z"/>
      </g>
      <g>
        <path class="cls-93" d="M13.78,4.64c-.02.26-.28.5-.52.6-.24.09-.77.13-1.08-.02.1-.34.55-.68.82-.74.26-.07.63-.04.78.16Z"/>
        <path class="cls-93" d="M11.36,5.92c.2-.23.69-.28.97-.18.28.11.48.41.55.63-.15.18-.52.25-.76.16-.25-.1-.6-.34-.75-.61Z"/>
        <path class="cls-93" d="M10.23,6.54c.19-.26.69-.34.99-.26.3.09.53.38.62.61-.14.19-.51.3-.77.23-.26-.08-.65-.3-.83-.57Z"/>
        <path class="cls-93" d="M9.12,7.28c.18-.28.68-.42,1-.36.32.06.59.35.69.58-.13.21-.5.36-.78.3-.28-.06-.69-.25-.91-.52Z"/>
        <path class="cls-93" d="M8.03,8.15c.16-.31.67-.51,1-.46.34.04.64.32.76.54-.12.23-.49.41-.79.37-.29-.03-.74-.2-.98-.45Z"/>
        <path class="cls-93" d="M6.98,9.15c.14-.33.63-.6,1-.57.36.01.69.27.84.49-.1.25-.48.46-.78.46-.29,0-.79-.14-1.06-.38Z"/>
        <path class="cls-93" d="M5.99,10.28c.13-.34.59-.68.98-.69.37-.02.74.22.92.44-.08.26-.46.51-.76.55-.31.03-.83-.08-1.14-.29Z"/>
        <path class="cls-93" d="M5.07,11.55c.11-.36.57-.75.94-.81.39-.05.8.16,1,.37-.07.27-.4.58-.72.64-.32.05-.88,0-1.22-.2Z"/>
        <path class="cls-93" d="M4.26,12.96c.04-.4.52-.83.89-.93.38-.11.83.08,1.06.27-.04.29-.34.65-.68.74-.34.08-.9.09-1.28-.07Z"/>
        <path class="cls-93" d="M3.57,14.51c0-.42.42-.93.82-1.06.39-.14.86,0,1.13.17,0,.31-.3.7-.63.83-.32.13-.91.2-1.32.07Z"/>
        <path class="cls-93" d="M3.03,16.18c0-.42.32-1.01.73-1.19.39-.19.9-.1,1.19.05.02.31-.24.75-.55.92-.32.16-.93.3-1.37.21Z"/>
        <path class="cls-93" d="M2.67,17.98c-.11-.45.25-1.07.61-1.32.36-.25.92-.2,1.23-.08.06.32-.13.81-.46,1.02-.33.2-.92.42-1.38.39Z"/>
        <path class="cls-93" d="M2.52,19.88c-.14-.44.09-1.14.47-1.43.36-.3.92-.32,1.26-.23.13.32-.08.84-.36,1.1-.29.25-.9.55-1.38.57Z"/>
        <path class="cls-93" d="M2.59,21.85c-.21-.44-.01-1.19.3-1.54.35-.35.93-.44,1.29-.4.13.32.05.87-.23,1.18-.29.3-.88.68-1.36.76Z"/>
        <path class="cls-93" d="M2.93,23.88c-.27-.43-.2-1.22.12-1.63.3-.4.88-.57,1.26-.57.22.3.14.89-.09,1.24-.24.34-.8.81-1.3.96Z"/>
        <path class="cls-93" d="M3.56,25.93c-.36-.39-.35-1.24-.11-1.69.26-.46.85-.71,1.24-.76.22.29.3.89.07,1.28-.23.39-.7.94-1.2,1.17Z"/>
        <path class="cls-93" d="M4.49,27.95c-.39-.37-.57-1.22-.35-1.73.21-.51.77-.85,1.17-.96.29.26.4.88.26,1.3-.16.42-.62,1.08-1.08,1.38Z"/>
        <path class="cls-93" d="M5.75,29.89c-.46-.33-.76-1.17-.61-1.73.13-.55.65-.98,1.05-1.15.36.21.54.84.46,1.29-.1.45-.46,1.2-.91,1.58Z"/>
        <path class="cls-93" d="M7.35,31.69c-.53-.26-.96-1.09-.89-1.68.04-.58.53-1.11.91-1.34.39.17.69.77.66,1.26-.03.48-.29,1.3-.68,1.76Z"/>
        <path class="cls-93" d="M9.28,33.28c-.59-.17-1.16-.96-1.19-1.58-.05-.6.38-1.23.73-1.52.42.12.83.68.87,1.19.04.49-.09,1.38-.42,1.92Z"/>
        <path class="cls-93" d="M11.52,34.6c-.63-.08-1.36-.8-1.48-1.43-.15-.61.19-1.32.51-1.68.45.05.95.56,1.08,1.07.12.5.14,1.43-.11,2.04Z"/>
        <path class="cls-93" d="M14.04,35.57c-.66.01-1.53-.58-1.76-1.21-.25-.6-.03-1.38.24-1.81.47-.04,1.06.42,1.29.9.21.49.39,1.45.24,2.12Z"/>
        <path class="cls-93" d="M11.09,5.38c.3-.07.68-.34.82-.63.13-.28.08-.65-.03-.85-.26,0-.64.24-.76.49-.12.24-.15.71-.03.99Z"/>
        <path class="cls-93" d="M9.92,6.02c.3-.09.68-.41.8-.72.12-.31.03-.68-.1-.88-.27.02-.64.3-.75.57-.11.26-.1.74.05,1.03Z"/>
        <path class="cls-93" d="M8.75,6.78c.31-.12.67-.48.76-.82.1-.33-.02-.71-.18-.9-.28.05-.64.37-.73.66-.09.28-.04.78.14,1.06Z"/>
        <path class="cls-93" d="M7.61,7.67c.31-.15.64-.57.72-.92.07-.35-.08-.73-.26-.92-.29.07-.64.44-.7.74-.06.31.03.82.24,1.09Z"/>
        <path class="cls-93" d="M6.51,8.69c.31-.18.6-.66.66-1.02.04-.36-.15-.75-.35-.93-.29.1-.64.5-.66.84-.03.33.11.84.35,1.11Z"/>
        <path class="cls-93" d="M5.47,9.86c.32-.2.56-.75.59-1.12.01-.38-.22-.76-.45-.93-.3.13-.62.58-.6.93,0,.35.18.86.46,1.11Z"/>
        <path class="cls-93" d="M4.5,11.17c.32-.24.52-.82.5-1.22-.02-.39-.3-.76-.55-.92-.31.15-.57.67-.53,1.03.03.36.27.87.58,1.1Z"/>
        <path class="cls-93" d="M3.63,12.64c.28-.3.47-.89.39-1.31-.08-.42-.39-.77-.67-.9-.29.2-.51.77-.44,1.13.06.36.37.87.73,1.08Z"/>
        <path class="cls-93" d="M2.9,14.25c.26-.34.36-.99.26-1.4-.12-.42-.49-.75-.79-.86-.27.24-.46.85-.35,1.22.12.38.49.87.88,1.05Z"/>
        <path class="cls-93" d="M2.32,15.99c.26-.37.25-1.07.11-1.48-.16-.42-.58-.72-.9-.8-.27.28-.4.93-.22,1.3.16.38.59.84,1.01.98Z"/>
        <path class="cls-93" d="M1.93,17.87c.17-.42.18-1.12-.06-1.55-.24-.42-.69-.68-1.03-.73-.25.32-.27,1.01-.07,1.38.19.37.72.8,1.17.89Z"/>
        <path class="cls-93" d="M1.75,19.86c.16-.45,0-1.18-.25-1.59-.28-.4-.8-.62-1.15-.63-.19.36-.2,1.08.08,1.44.27.36.84.74,1.32.78Z"/>
        <path class="cls-93" d="M1.81,21.93c.1-.49-.11-1.22-.46-1.61-.32-.38-.89-.55-1.26-.51-.2.4-.04,1.14.27,1.48.3.34.95.66,1.45.64Z"/>
        <path class="cls-93" d="M2.15,24.06c.04-.52-.31-1.25-.68-1.61-.4-.35-1.01-.45-1.38-.36-.11.43.08,1.2.47,1.5.38.31,1.08.56,1.6.47Z"/>
        <path class="cls-93" d="M2.79,26.22c-.06-.53-.46-1.25-.94-1.56-.46-.31-1.08-.34-1.46-.19-.1.48.28,1.22.69,1.49.4.28,1.2.42,1.71.26Z"/>
        <path class="cls-93" d="M3.75,28.35c-.09-.56-.68-1.21-1.18-1.48-.51-.26-1.17-.19-1.54,0-.01.5.44,1.24.93,1.44.48.22,1.27.28,1.79.03Z"/>
        <path class="cls-93" d="M5.07,30.41c-.18-.56-.88-1.15-1.43-1.35-.57-.19-1.24-.02-1.59.24.08.5.63,1.22,1.17,1.35.53.16,1.37.09,1.85-.24Z"/>
        <path class="cls-93" d="M6.74,32.32c-.28-.54-1.08-1.05-1.69-1.17-.62-.1-1.28.16-1.6.48.16.51.85,1.15,1.42,1.22.57.08,1.43-.12,1.87-.53Z"/>
        <path class="cls-93" d="M8.76,34.01c-.38-.51-1.28-.9-1.92-.93-.66,0-1.29.36-1.57.74.23.52,1.06,1.05,1.65,1.04.6,0,1.45-.35,1.84-.85Z"/>
        <path class="cls-93" d="M11.12,35.43c-.48-.46-1.46-.71-2.13-.64-.68.11-1.27.58-1.5,1.02.32.5,1.27.92,1.88.8.62-.11,1.43-.6,1.75-1.18Z"/>
        <path class="cls-93" d="M13.78,36.47c-.57-.4-1.63-.48-2.3-.29-.68.22-1.21.81-1.37,1.3.43.44,1.46.74,2.08.5.62-.21,1.37-.86,1.59-1.51Z"/>
      </g>
    </g>
    <path class="cls-49" d="M18.49,32.93c-1.49-3.51-13-2.28-11.14-8.37,1.86-6.09,1.46-9.8.78-12.69,1.82,1.4,3.75-1.28,1.92-2.67h16.88c-1.83,1.39.1,4.07,1.92,2.67-.68,2.89-1.07,6.6.78,12.69,1.86,6.09-9.65,4.86-11.14,8.37Z"/>
    <path class="cls-107" d="M28.89,24.32c-1.73-5.69-1.46-8.91-.83-11.61-1.71.81-3.53-1.51-2.41-2.73h-14.33c1.13,1.22-.7,3.54-2.41,2.73.63,2.7.9,5.92-.83,11.61-1.73,5.69,9.01,4.54,10.4,7.82,1.39-3.28,12.13-2.13,10.4-7.82Z"/>
    <path class="cls-64" d="M15.82,30.25c.52.18.99.39,1.4.62l-8.58-8.52c-.15.62-.34,1.28-.55,1.97-.04.14-.08.28-.1.41l7.83,5.52Z"/>
    <path class="cls-50" d="M8.92,12.71c.25,1.06.44,2.21.48,3.55l8.88,15.49c.09.12.16.25.22.38l-7.35-19.98c-.53.6-1.39.95-2.22.56Z"/>
    <path class="cls-69" d="M27.58,16.26c.04-1.34.23-2.49.48-3.55-.83.4-1.69.05-2.22-.56l-7.35,19.98c.06-.13.13-.26.22-.38l8.88-15.49Z"/>
    <path class="cls-47" d="M21.16,30.25c-.51.18-.99.39-1.4.62l8.58-8.52c.16.62.34,1.28.55,1.97.04.14.08.28.1.41l-7.83,5.52Z"/>
    <g class="cls-110">
      <polygon class="cls-113" points="16.63 9.98 18.49 32.14 20.35 9.98 16.63 9.98"/>
      <polygon class="cls-36" points="7.44 12.85 18.49 32.14 10.82 11.27 7.44 12.85"/>
      <polygon class="cls-21" points=".32 19.32 18.49 32.14 2.72 16.47 .32 19.32"/>
      <polygon class="cls-68" points="26.16 11.27 18.49 32.14 29.54 12.85 26.16 11.27"/>
      <polygon class="cls-32" points="34.26 16.47 18.49 32.14 36.66 19.32 34.26 16.47"/>
    </g>
    <path class="cls-25" d="M18.49,32.93c-1.49-3.51-13-2.28-11.14-8.37,1.86-6.09,1.46-9.8.78-12.69,1.82,1.4,3.75-1.28,1.92-2.67h16.88c-1.83,1.39.1,4.07,1.92,2.67-.68,2.89-1.07,6.6.78,12.69,1.86,6.09-9.65,4.86-11.14,8.37ZM28.89,24.32c-1.73-5.69-1.46-8.91-.83-11.61-1.71.81-3.53-1.51-2.41-2.73h-14.33c1.13,1.22-.7,3.54-2.41,2.73.63,2.7.9,5.92-.83,11.61-1.73,5.69,9.01,4.54,10.4,7.82,1.39-3.28,12.13-2.13,10.4-7.82Z"/>
    <g>
      <path class="cls-34" d="M23.03,4.74c.02.26.28.5.52.6.24.09.77.11,1.07-.03-.1-.35-.55-.66-.82-.73-.26-.07-.62-.04-.77.16Z"/>
      <path class="cls-78" d="M25.44,5.99c-.21-.21-.69-.27-.96-.16-.28.11-.48.41-.54.63.15.17.51.25.75.16.24-.1.6-.36.75-.62Z"/>
      <path class="cls-100" d="M26.56,6.59c-.2-.24-.69-.33-.98-.25-.3.09-.53.39-.61.61.14.19.51.3.77.22.26-.08.65-.32.83-.59Z"/>
      <path class="cls-90" d="M27.67,7.32c-.18-.27-.69-.41-1-.34-.32.07-.58.36-.68.58.13.21.5.35.77.29.28-.07.7-.27.9-.53Z"/>
      <path class="cls-80" d="M28.75,8.17c-.16-.31-.67-.48-1-.45-.34.04-.63.32-.76.55.11.23.49.41.78.37.29-.05.74-.21.98-.47Z"/>
      <path class="cls-63" d="M29.8,9.15c-.14-.33-.64-.58-.99-.56-.35.02-.68.28-.83.5.1.25.47.46.78.44.29,0,.78-.15,1.05-.39Z"/>
      <path class="cls-4" d="M30.79,10.27c-.12-.34-.6-.67-.98-.67-.37-.01-.74.23-.91.44.08.27.46.5.76.53.31.02.83-.08,1.13-.3Z"/>
      <path class="cls-89" d="M31.71,11.52c-.11-.36-.55-.75-.94-.79-.39-.05-.79.17-.99.38.07.27.42.57.73.63.32.05.87-.01,1.21-.21Z"/>
      <path class="cls-96" d="M32.53,12.91c-.06-.39-.52-.82-.89-.92-.38-.1-.84.1-1.07.29.05.28.34.64.68.72.33.08.91.07,1.28-.09Z"/>
      <path class="cls-62" d="M33.22,14.43c0-.42-.44-.91-.82-1.04-.39-.14-.86,0-1.12.18,0,.31.29.69.63.81.33.12.91.18,1.31.05Z"/>
      <path class="cls-41" d="M33.77,16.09c.01-.42-.32-1-.74-1.17-.39-.18-.9-.09-1.19.07-.03.32.25.74.56.91.32.16.93.29,1.36.2Z"/>
      <path class="cls-103" d="M34.15,17.87c.09-.44-.26-1.06-.62-1.3-.38-.24-.93-.19-1.24-.07-.04.31.14.8.47,1,.33.2.94.41,1.39.37Z"/>
      <path class="cls-6" d="M34.31,19.74c.15-.44-.1-1.13-.48-1.41-.36-.29-.92-.31-1.26-.22-.12.32.07.83.37,1.09.29.25.9.53,1.38.55Z"/>
      <path class="cls-70" d="M34.26,21.7c.18-.44.02-1.18-.32-1.52-.35-.34-.93-.43-1.29-.38-.13.32-.03.87.24,1.16.28.29.89.67,1.37.74Z"/>
      <path class="cls-5" d="M33.93,23.72c.27-.42.19-1.22-.13-1.61-.3-.4-.88-.56-1.26-.55-.21.3-.15.88.1,1.22.24.33.8.8,1.3.94Z"/>
      <path class="cls-87" d="M33.33,25.75c.35-.4.33-1.23.09-1.67-.28-.46-.86-.7-1.25-.75-.22.29-.28.88-.06,1.27.23.38.73.93,1.22,1.15Z"/>
      <path class="cls-8" d="M32.43,27.76c.37-.38.55-1.21.32-1.72-.21-.5-.77-.84-1.17-.94-.3.26-.39.87-.24,1.29.16.42.62,1.07,1.1,1.37Z"/>
      <path class="cls-51" d="M31.19,29.69c.46-.32.75-1.17.59-1.72-.13-.55-.66-.97-1.06-1.13-.36.21-.53.83-.44,1.29.1.45.47,1.18.92,1.56Z"/>
      <path class="cls-33" d="M29.62,31.49c.53-.25.94-1.09.87-1.67-.05-.57-.55-1.11-.93-1.33-.37.18-.69.76-.64,1.26.03.47.3,1.28.7,1.74Z"/>
      <path class="cls-48" d="M27.73,33.08c.59-.17,1.14-.97,1.16-1.57.04-.6-.4-1.23-.76-1.52-.4.14-.82.66-.84,1.19-.04.49.1,1.36.44,1.9Z"/>
      <path class="cls-65" d="M25.52,34.41c.63-.07,1.33-.8,1.45-1.42.14-.61-.21-1.33-.53-1.68-.43.07-.95.54-1.06,1.08-.12.5-.12,1.42.13,2.03Z"/>
      <path class="cls-28" d="M23.03,35.39c.66.03,1.51-.59,1.73-1.21.25-.6,0-1.39-.26-1.81-.46-.01-1.05.4-1.26.91-.21.49-.37,1.44-.22,2.11Z"/>
      <path class="cls-2" d="M25.7,5.45c-.3-.04-.68-.33-.82-.62-.13-.28-.09-.65.02-.85.26,0,.63.24.75.49.12.25.16.69.04.98Z"/>
      <path class="cls-112" d="M26.87,6.07c-.31-.07-.68-.4-.8-.71-.12-.31-.04-.68.09-.88.27.02.64.3.74.57.11.27.11.73-.04,1.02Z"/>
      <path class="cls-106" d="M28.03,6.81c-.31-.11-.67-.47-.76-.8-.1-.33.02-.71.17-.91.28.04.64.37.72.65.09.28.05.77-.13,1.06Z"/>
      <path class="cls-114" d="M29.16,7.68c-.31-.15-.65-.55-.72-.9-.07-.35.08-.73.25-.92.28.07.63.43.7.74.07.3-.03.81-.23,1.09Z"/>
      <path class="cls-92" d="M30.26,8.69c-.31-.18-.61-.64-.66-1-.04-.36.15-.75.35-.93.29.1.62.5.66.82.03.33-.1.84-.35,1.11Z"/>
      <path class="cls-46" d="M31.31,9.85c-.31-.2-.56-.73-.59-1.11-.01-.38.22-.76.44-.93.29.13.62.57.61.92,0,.35-.18.86-.46,1.12Z"/>
      <path class="cls-76" d="M32.28,11.14c-.32-.23-.51-.82-.5-1.21.02-.39.3-.77.54-.92.3.15.58.66.54,1.02-.03.36-.27.87-.58,1.1Z"/>
      <path class="cls-59" d="M33.15,12.58c-.29-.28-.47-.88-.39-1.3.07-.41.38-.76.66-.9.31.18.51.76.45,1.12-.06.37-.36.87-.71,1.08Z"/>
      <path class="cls-75" d="M33.89,14.17c-.25-.33-.38-.97-.27-1.39.12-.42.49-.76.79-.87.27.24.45.84.35,1.21-.11.38-.49.87-.87,1.05Z"/>
      <path class="cls-38" d="M34.48,15.9c-.26-.36-.26-1.05-.12-1.47.16-.42.58-.73.9-.81.26.28.41.91.23,1.29-.16.38-.59.84-1.01.98Z"/>
      <path class="cls-27" d="M34.89,17.75c-.2-.41-.18-1.11.05-1.53.22-.41.68-.68,1.02-.73.27.31.28,1,.09,1.37-.19.37-.7.8-1.16.9Z"/>
      <path class="cls-85" d="M35.08,19.72c-.15-.45-.02-1.17.24-1.58.28-.4.8-.63,1.15-.63.2.36.19,1.07-.07,1.43-.27.36-.84.74-1.32.78Z"/>
      <path class="cls-52" d="M35.04,21.77c-.13-.48.11-1.21.44-1.6.32-.38.89-.55,1.25-.51.2.4.06,1.13-.25,1.47-.31.34-.93.67-1.44.65Z"/>
      <path class="cls-86" d="M34.72,23.89c-.04-.51.29-1.24.67-1.6.4-.35,1.01-.45,1.38-.37.12.43-.09,1.18-.45,1.49-.38.31-1.09.56-1.6.47Z"/>
      <path class="cls-99" d="M34.1,26.03c.04-.53.44-1.24.92-1.55.44-.31,1.08-.34,1.45-.2.1.47-.26,1.21-.67,1.48-.4.28-1.18.43-1.7.27Z"/>
      <path class="cls-40" d="M33.17,28.16c.07-.56.67-1.21,1.15-1.48.51-.26,1.17-.19,1.54,0,0,.49-.42,1.23-.91,1.44-.48.22-1.28.28-1.78.04Z"/>
      <path class="cls-66" d="M31.88,30.2c.18-.55.86-1.14,1.41-1.35.57-.19,1.25-.03,1.6.23-.08.5-.62,1.21-1.16,1.35-.53.16-1.37.09-1.85-.23Z"/>
      <path class="cls-57" d="M30.24,32.11c.28-.53,1.06-1.05,1.67-1.17.62-.1,1.27.15,1.6.47-.13.53-.84,1.14-1.39,1.23-.57.08-1.43-.12-1.88-.53Z"/>
      <path class="cls-10" d="M28.25,33.81c.38-.5,1.25-.91,1.9-.93.65,0,1.28.35,1.57.73-.21.53-1.05,1.04-1.63,1.05-.6,0-1.45-.35-1.85-.85Z"/>
      <path class="cls-45" d="M25.93,35.23c.47-.45,1.44-.72,2.11-.65.67.1,1.26.56,1.5,1-.3.52-1.26.91-1.85.82-.62-.11-1.43-.6-1.75-1.17Z"/>
      <path class="cls-88" d="M23.29,36.28c.56-.39,1.61-.49,2.28-.3.68.22,1.2.79,1.37,1.29-.41.46-1.45.73-2.06.52-.62-.21-1.37-.86-1.59-1.5Z"/>
      <path class="cls-29" d="M13.95,4.74c-.02.26-.28.5-.52.6-.24.09-.77.11-1.07-.03.1-.35.55-.66.82-.73.26-.07.62-.04.77.16Z"/>
      <path class="cls-43" d="M11.54,5.99c.21-.21.69-.27.96-.16.28.11.48.41.54.63-.15.17-.51.25-.75.16-.24-.1-.6-.36-.75-.62Z"/>
      <path class="cls-39" d="M10.42,6.59c.2-.24.69-.33.99-.25.3.09.53.39.61.61-.14.19-.51.3-.77.22-.26-.08-.65-.32-.83-.59Z"/>
      <path class="cls-56" d="M9.31,7.32c.18-.27.69-.41,1-.34.32.07.58.36.68.58-.13.21-.5.35-.77.29-.28-.07-.7-.27-.9-.53Z"/>
      <path class="cls-35" d="M8.23,8.17c.16-.31.67-.48,1-.45.34.04.63.32.76.55-.11.23-.49.41-.78.37-.29-.05-.74-.21-.98-.47Z"/>
      <path class="cls-55" d="M7.18,9.15c.14-.33.64-.58.99-.56.35.02.68.28.83.5-.1.25-.47.46-.78.44-.29,0-.78-.15-1.05-.39Z"/>
      <path class="cls-20" d="M6.19,10.27c.12-.34.6-.67.98-.67.37-.01.74.23.91.44-.08.27-.46.5-.76.53-.31.02-.83-.08-1.13-.3Z"/>
      <path class="cls-24" d="M5.27,11.52c.11-.36.55-.75.94-.79.39-.05.79.17.99.38-.07.27-.42.57-.73.63-.32.05-.87-.01-1.21-.21Z"/>
      <path class="cls-105" d="M4.45,12.91c.06-.39.52-.82.89-.92.38-.1.84.1,1.07.29-.05.28-.34.64-.68.72-.33.08-.91.07-1.28-.09Z"/>
      <path class="cls-31" d="M3.76,14.43c0-.42.44-.91.82-1.04.39-.14.86,0,1.12.18,0,.31-.29.69-.63.81-.33.12-.91.18-1.31.05Z"/>
      <path class="cls-98" d="M3.21,16.09c-.01-.42.32-1,.74-1.17.39-.18.9-.09,1.19.07.03.32-.25.74-.56.91-.32.16-.93.29-1.36.2Z"/>
      <path class="cls-97" d="M2.83,17.87c-.09-.44.26-1.06.62-1.3.38-.24.93-.19,1.24-.07.04.31-.14.8-.47,1-.33.2-.94.41-1.39.37Z"/>
      <path class="cls-44" d="M2.67,19.74c-.15-.44.1-1.13.48-1.41.36-.29.92-.31,1.26-.22.12.32-.07.83-.37,1.09-.29.25-.9.53-1.38.55Z"/>
      <path class="cls-3" d="M2.72,21.7c-.18-.44-.02-1.18.32-1.52.35-.34.93-.43,1.29-.38.13.32.03.87-.24,1.16-.28.29-.89.67-1.37.74Z"/>
      <path class="cls-30" d="M3.05,23.72c-.27-.42-.19-1.22.13-1.61.3-.4.88-.56,1.26-.55.21.3.15.88-.1,1.22-.24.33-.8.8-1.3.94Z"/>
      <path class="cls-1" d="M3.65,25.75c-.35-.4-.34-1.23-.09-1.67.28-.46.86-.7,1.25-.75.22.29.28.88.06,1.27-.23.38-.73.93-1.22,1.15Z"/>
      <path class="cls-84" d="M4.55,27.76c-.37-.38-.55-1.21-.32-1.72.21-.5.77-.84,1.17-.94.3.26.39.87.24,1.29-.16.42-.62,1.07-1.1,1.37Z"/>
      <path class="cls-37" d="M5.79,29.69c-.46-.32-.75-1.17-.59-1.72.14-.55.66-.97,1.06-1.13.36.21.53.83.44,1.29-.1.45-.47,1.18-.92,1.56Z"/>
      <path class="cls-23" d="M7.36,31.49c-.53-.25-.94-1.09-.87-1.67.05-.57.55-1.11.93-1.33.37.18.69.76.64,1.26-.03.47-.3,1.28-.7,1.74Z"/>
      <path class="cls-94" d="M9.25,33.08c-.59-.17-1.14-.97-1.16-1.57-.04-.6.4-1.23.76-1.52.4.14.82.66.84,1.19.04.49-.1,1.36-.44,1.9Z"/>
      <path class="cls-108" d="M11.46,34.41c-.63-.07-1.33-.8-1.45-1.42-.14-.61.21-1.33.53-1.68.43.07.94.54,1.06,1.08.12.5.12,1.42-.13,2.03Z"/>
      <path class="cls-58" d="M13.95,35.39c-.66.03-1.51-.59-1.73-1.21-.25-.6,0-1.39.26-1.81.46-.01,1.05.4,1.26.91.21.49.37,1.44.22,2.11Z"/>
      <path class="cls-61" d="M11.28,5.45c.3-.04.68-.33.82-.62.13-.28.09-.65-.02-.85-.26,0-.63.24-.75.49-.12.25-.16.69-.04.98Z"/>
      <path class="cls-104" d="M10.11,6.07c.31-.07.68-.4.8-.71.12-.31.04-.68-.09-.88-.27.02-.64.3-.74.57-.11.27-.11.73.04,1.02Z"/>
      <path class="cls-77" d="M8.95,6.81c.31-.11.67-.47.76-.8.1-.33-.02-.71-.17-.91-.28.04-.64.37-.72.65-.09.28-.05.77.13,1.06Z"/>
      <path class="cls-26" d="M7.82,7.68c.31-.15.65-.55.72-.9.07-.35-.08-.73-.26-.92-.28.07-.63.43-.7.74-.07.3.03.81.23,1.09Z"/>
      <path class="cls-91" d="M6.72,8.69c.31-.18.61-.64.66-1,.04-.36-.15-.75-.35-.93-.29.1-.62.5-.66.82-.03.33.1.84.35,1.11Z"/>
      <path class="cls-53" d="M5.67,9.85c.31-.2.56-.73.59-1.11.01-.38-.22-.76-.44-.93-.29.13-.62.57-.61.92,0,.35.18.86.46,1.12Z"/>
      <path class="cls-60" d="M4.7,11.14c.32-.23.51-.82.5-1.21-.02-.39-.3-.77-.54-.92-.3.15-.58.66-.54,1.02.03.36.27.87.58,1.1Z"/>
      <path class="cls-9" d="M3.83,12.58c.29-.28.47-.88.39-1.3-.07-.41-.38-.76-.66-.9-.31.18-.51.76-.45,1.12.06.37.36.87.71,1.08Z"/>
      <path class="cls-102" d="M3.09,14.17c.25-.33.38-.97.27-1.39-.12-.42-.49-.76-.79-.87-.27.24-.45.84-.35,1.21.11.38.49.87.87,1.05Z"/>
      <path class="cls-101" d="M2.5,15.9c.26-.36.26-1.05.12-1.47-.16-.42-.58-.73-.9-.81-.26.28-.41.91-.23,1.29.16.38.59.84,1.01.98Z"/>
      <path class="cls-111" d="M2.09,17.75c.2-.41.18-1.11-.05-1.53-.22-.41-.68-.68-1.02-.73-.27.31-.28,1-.09,1.37.19.37.7.8,1.16.9Z"/>
      <path class="cls-73" d="M1.9,19.72c.15-.45.02-1.17-.24-1.58-.28-.4-.8-.63-1.15-.63-.2.36-.19,1.07.07,1.43.27.36.84.74,1.32.78Z"/>
      <path class="cls-82" d="M1.94,21.77c.13-.48-.11-1.21-.44-1.6-.32-.38-.89-.55-1.25-.51-.2.4-.06,1.13.25,1.47.31.34.93.67,1.44.65Z"/>
      <path class="cls-95" d="M2.26,23.89c.04-.51-.29-1.24-.67-1.6-.4-.35-1.01-.45-1.38-.37-.12.43.09,1.18.45,1.49.38.31,1.08.56,1.6.47Z"/>
      <path class="cls-83" d="M2.88,26.03c-.04-.53-.44-1.24-.92-1.55-.44-.31-1.08-.34-1.45-.2-.1.47.26,1.21.67,1.48.4.28,1.18.43,1.7.27Z"/>
      <path class="cls-54" d="M3.81,28.16c-.07-.56-.67-1.21-1.15-1.48-.51-.26-1.17-.19-1.54,0,0,.49.42,1.23.91,1.44.48.22,1.28.28,1.78.04Z"/>
      <path class="cls-71" d="M5.1,30.2c-.18-.55-.86-1.14-1.41-1.35-.57-.19-1.24-.03-1.6.23.08.5.62,1.21,1.16,1.35.53.16,1.37.09,1.85-.23Z"/>
      <path class="cls-7" d="M6.74,32.11c-.28-.53-1.06-1.05-1.67-1.17-.62-.1-1.27.15-1.6.47.13.53.84,1.14,1.39,1.23.57.08,1.43-.12,1.88-.53Z"/>
      <path class="cls-67" d="M8.73,33.81c-.38-.5-1.25-.91-1.9-.93-.65,0-1.28.35-1.57.73.21.53,1.05,1.04,1.63,1.05.6,0,1.45-.35,1.85-.85Z"/>
      <path class="cls-109" d="M11.05,35.23c-.47-.45-1.44-.72-2.11-.65-.67.1-1.26.56-1.5,1,.3.52,1.26.91,1.85.82.62-.11,1.43-.6,1.76-1.17Z"/>
      <path class="cls-74" d="M13.69,36.28c-.56-.39-1.61-.49-2.28-.3-.68.22-1.2.79-1.37,1.29.41.46,1.45.73,2.06.52.62-.21,1.37-.86,1.59-1.5Z"/>
    </g>
  </g>
  <g>
    <text class="cls-22" transform="translate(9.52 22.35)"><tspan x="0" y="0">Diamond</tspan></text>
    <g>
      <path class="cls-19" d="M9.89,22.35v-2.96h.81c.3,0,.56.05.78.16.22.11.39.27.5.48.12.22.18.49.18.82s-.06.61-.18.83c-.12.22-.28.39-.5.5-.21.11-.47.17-.76.17h-.84ZM10.48,21.87h.18c.19,0,.35-.03.48-.1s.24-.18.31-.33c.07-.15.11-.35.11-.59s-.04-.43-.11-.58c-.07-.15-.17-.25-.31-.32-.13-.06-.3-.1-.48-.1h-.18v2.01Z"/>
      <path class="cls-13" d="M12.99,19.74c-.1,0-.19-.03-.25-.09s-.09-.14-.09-.23.03-.17.09-.23c.06-.06.14-.09.25-.09.1,0,.18.03.24.09.06.06.1.14.1.23s-.03.18-.1.23c-.06.06-.15.09-.24.09ZM12.69,22.35v-2.24h.59v2.24h-.59Z"/>
      <path class="cls-17" d="M14.46,22.4c-.13,0-.25-.03-.35-.09-.1-.06-.18-.14-.23-.24-.05-.1-.08-.22-.08-.34,0-.24.1-.42.31-.55.21-.13.53-.22.98-.27,0-.07-.02-.14-.04-.2-.02-.06-.06-.1-.12-.14s-.13-.05-.22-.05c-.1,0-.21.02-.31.06s-.2.09-.31.16l-.21-.39c.09-.06.18-.11.28-.15s.2-.08.31-.11c.11-.03.22-.04.34-.04.19,0,.35.04.48.11s.22.19.29.33c.06.15.1.33.1.54v1.31h-.48l-.04-.24h-.02c-.1.09-.2.16-.31.21s-.23.08-.36.08ZM14.65,21.94c.08,0,.16-.02.23-.06.07-.04.14-.09.21-.16v-.45c-.18.02-.33.05-.43.09-.11.04-.18.09-.23.14s-.07.12-.07.18c0,.09.03.15.08.19s.13.06.21.06Z"/>
      <path class="cls-11" d="M16.27,22.35v-2.24h.48l.04.3h.01c.09-.1.2-.18.3-.25s.24-.11.38-.11c.16,0,.29.03.39.1.1.07.17.16.23.29.11-.11.22-.2.33-.28.11-.08.24-.11.39-.11.24,0,.42.08.53.24.11.16.17.38.17.66v1.4h-.58v-1.32c0-.17-.03-.29-.08-.36-.05-.07-.13-.1-.24-.1-.06,0-.13.02-.2.06s-.15.1-.23.19v1.54h-.59v-1.32c0-.17-.03-.29-.08-.36-.05-.07-.13-.1-.24-.1-.06,0-.13.02-.2.06s-.15.1-.23.19v1.54h-.59Z"/>
      <path class="cls-12" d="M21.07,22.4c-.19,0-.36-.05-.53-.14s-.3-.23-.4-.4c-.1-.17-.15-.39-.15-.63s.05-.46.15-.63.23-.31.4-.4c.16-.09.34-.14.53-.14.14,0,.28.03.4.08.13.05.24.13.34.23.1.1.18.22.24.37.06.15.09.31.09.5,0,.25-.05.46-.15.63-.1.17-.23.31-.4.4s-.34.14-.53.14ZM21.07,21.92c.1,0,.19-.03.26-.09.07-.06.12-.14.16-.24s.05-.23.05-.37-.02-.26-.05-.37-.09-.19-.16-.24c-.07-.06-.16-.09-.26-.09s-.19.03-.26.09c-.07.06-.12.14-.16.24s-.05.23-.05.37.02.26.05.37.09.18.16.24c.07.06.16.09.26.09Z"/>
      <path class="cls-18" d="M22.63,22.35v-2.24h.48l.04.3h.01c.1-.1.21-.18.32-.25s.25-.1.4-.1c.24,0,.42.08.53.24s.16.38.16.66v1.4h-.59v-1.32c0-.17-.02-.29-.07-.36-.05-.07-.13-.1-.24-.1-.09,0-.17.02-.24.06s-.14.11-.23.19v1.54h-.59Z"/>
      <path class="cls-15" d="M25.99,22.4c-.19,0-.35-.05-.49-.14-.14-.09-.24-.23-.32-.4-.07-.18-.11-.39-.11-.63s.04-.45.13-.63c.09-.17.21-.31.35-.41.14-.1.3-.14.46-.14.12,0,.23.02.32.07.09.04.17.1.25.18l-.02-.35v-.79h.59v3.19h-.48l-.04-.23h-.02c-.08.08-.18.15-.28.2-.11.06-.22.08-.34.08ZM26.14,21.92c.08,0,.15-.02.22-.05.07-.04.13-.1.2-.18v-.98c-.07-.06-.13-.1-.21-.13-.07-.03-.14-.04-.21-.04-.08,0-.16.03-.23.08-.07.05-.13.13-.17.23-.04.1-.06.23-.06.38s.02.28.05.39.09.18.16.23c.07.05.15.08.25.08Z"/>
    </g>
    <text class="cls-22" transform="translate(9.52 22.35)"><tspan x="0" y="0">Diamond</tspan></text>
  </g>
  <g>
    <g>
      <polygon class="cls-72" points="17.76 7.35 13.94 1.92 15.85 2.94 17.76 7.35"/>
      <g>
        <path class="cls-72" d="M19.09,7.35l.63-1.46c.11.03.22.06.33.09l-.97,1.37Z"/>
        <path class="cls-72" d="M13.88,1.58l1.55-.36c.1.51.27.99.48,1.44l-2.03-1.08Z"/>
        <path class="cls-72" d="M13.99,1.27L15.31.1c0,.29.03.57.07.84l-1.39.32Z"/>
        <path class="cls-72" d="M19.46,5.8l-1.03,2.38-2.05-4.73c.74,1.09,1.82,1.92,3.08,2.35Z"/>
      </g>
    </g>
    <g>
      <path class="cls-81" d="M17.2.03l-.19-.03h.19s0,0,0,0c0,0,0,.02,0,.02Z"/>
      <path class="cls-81" d="M16.29,2.7l1.19-1.18c.17.43.4.83.69,1.18h-1.87Z"/>
      <path class="cls-81" d="M21.28,4.24l-1.22,1.74c-.11-.03-.22-.06-.33-.09l.76-1.75c.26.06.52.09.8.1Z"/>
      <path class="cls-81" d="M17.38,1.23l-1.45,1.44h-.01c-.22-.46-.38-.94-.48-1.45l1.84-.43c.03.15.06.29.11.44Z"/>
      <path class="cls-81" d="M15.42,0l1.8.31c0,.07.01.13.02.2l-1.85.43c-.04-.28-.07-.56-.07-.84l.05-.05.05-.05Z"/>
      <path class="cls-81" d="M18.42,2.98c.49.5,1.1.88,1.79,1.08l-.75,1.74c-1.26-.43-2.34-1.27-3.08-2.35l-.2-.47h2.25Z"/>
    </g>
    <g>
      <path class="cls-79" d="M18.37,0c0,.08,0,.15,0,.22l-1.18-.2s0-.02,0-.02c0,0,0,0,0,0h1.17s0,0,0,0Z"/>
      <path class="cls-79" d="M18.42.58c.17.92.75,1.69,1.55,2.12h-1.81c-.29-.35-.52-.75-.69-1.18l.95-.94h0Z"/>
      <path class="cls-79" d="M21.43,3.07c.25,0,.5-.03.73-.09l-.88,1.26c-.27,0-.54-.05-.8-.1l.48-1.1c.15.02.31.04.47.04Z"/>
      <path class="cls-79" d="M17.38,1.23c-.04-.14-.08-.29-.11-.44l.71-.16-.6.6Z"/>
      <path class="cls-79" d="M17.23.52c0-.07-.01-.13-.02-.2l.51.09-.49.11Z"/>
      <path class="cls-79" d="M18.42,2.98h2.26l-.47,1.08c-.69-.21-1.3-.58-1.79-1.08Z"/>
    </g>
    <g>
      <path class="cls-42" d="M18.42.24h-.04c0-.08,0-.16,0-.23,0,0,0,0,0,0h1.47l-1.41.24Z"/>
      <path class="cls-42" d="M18.42.58l2.13,2.12h-.58c-.79-.43-1.37-1.2-1.55-2.12Z"/>
      <path class="cls-42" d="M22.66,2.05l.25-.13-.75,1.06c-.23.06-.48.09-.73.09-.16,0-.32-.01-.47-.04l.04-.09,1.66-.89Z"/>
    </g>
    <path class="cls-42" d="M18.87.63l2.05,2.04,2.05-1.09-4.1-.95ZM20.72,1.8l-.19-.07.19-.07c.09-.04.17-.11.2-.2l.07-.19.07.19c.04.09.11.17.2.2l.19.07-.19.07c-.09.04-.17.11-.2.2l-.07.19-.07-.19c-.04-.09-.11-.17-.2-.2Z"/>
    <path class="cls-42" d="M19.13.4l3.73.86L21.48.06l-.05-.05-2.3.39ZM21.18.44l-.12-.04.12-.04c.06-.02.1-.07.13-.13l.04-.12.04.12c.02.06.07.1.13.13l.12.04-.12.04c-.06.02-.1.07-.13.13l-.04.12-.04-.12c-.02-.06-.07-.1-.13-.13Z"/>
  </g>
</svg>